<?xml version="1.0" encoding="UTF-8"?>
<svg id="Layer_1" xmlns="http://www.w3.org/2000/svg" xmlns:xlink="http://www.w3.org/1999/xlink" version="1.1" viewBox="0 0 1200 1200">
  <!-- Generator: Adobe Illustrator 29.2.1, SVG Export Plug-In . SVG Version: 2.1.0 Build 116)  -->
  <defs>
    <style>
      .st0 {
        fill: red;
      }

      .st1 {
        fill: none;
        stroke: #000;
        stroke-miterlimit: 10;
        stroke-width: 2px;
      }
    </style>
  </defs>
  <g>
    <polygon class="st0" points="605.9 544.6 615.1 544.6 615.1 535.4 605.9 535.4 605.9 544.6"/>
    <polygon class="st0" points="670.8 553.3 680.1 553.3 680.1 544 670.8 544 670.8 553.3"/>
    <polygon class="st0" points="446.9 460.8 456.2 460.8 456.2 451.5 446.9 451.5 446.9 460.8"/>
    <polygon class="st0" points="676.5 419.5 685.8 419.5 685.8 410.2 676.5 410.2 676.5 419.5"/>
    <polygon class="st0" points="515.4 319.9 524.6 319.9 524.6 310.7 515.4 310.7 515.4 319.9"/>
  </g>
  <g>
    <path class="st1" d="M914.7,282.4v-10h.3c0,0,0-.7,0-.7h-.3v-1.5h.3c0,0,0-.7,0-.7h-.3v-2.9h.3c0,0,0-.7,0-.7h-.3v-4.3h.3s0-.7,0-.7h-.3v-.8h.3s0-1.4,0-1.4v-5h-.3v-5.8h.3s0-.7,0-.7h-.3v-2.9h.3c0,0,0-1.4,0-1.4v-10h-.3v-1.5h.3c0,0,0-.7,0-.7h-.3v-5.8h.3s0-.7,0-.7h-.3v-9.3h.3s0-.7,0-.7h-.3v-3.6h.3s0-.7,0-.7h-.3v-2.2h-.3s-.6-.1-.6-.1h-.6c0,0,0,.3,0,.3h-.3s-.3,0-.3,0h-.3s-.3,0-.3,0v-.4h-.6c0,0-.6-.2-.6-.2v.3h-.3s-.3,0-.3,0v-.4h-.6c0,0,0,.6,0,.6h-.6c0,0-1.3-.3-1.3-.3l-1.2-.2-1.2-.2v.4h-.3s-.3,0-.3,0h-.3s-.3,0-.3,0h-.3s0,.3,0,.3h-.3s-.6-.1-.6-.1h-.6c0,0-.6-.2-.6-.2v.3h-.3s-.3,0-.3,0v-.4h-.6c0,0,0,.5,0,.5h0s0,0,0,0l-1.2-.2-1.2-.2v.4h-.3s-.3-.1-.3-.1h-.3s-.3,0-.3,0v.4h-.6c0,0-.6-.2-.6-.2h-.6c0,0-.6-.2-.6-.2h-.6c0,0,0,.3,0,.3h-.3s-.3,0-.3,0h-.3c0,0-.3-.1-.3-.1v.2h-.2s0,.2,0,.2h-.5c0,0-1.2-.3-1.2-.3h-.6c0-.1,0,.3,0,.3h-.3s-.3,0-.3,0v-.4h-.6c0,0,0,.3,0,.3h-.3s-.3-.1-.3-.1h-.3s0,.2,0,.2h0s0,0,0,0h-.2s-.6-.1-.6-.1h-.6c0,0-.6-.2-.6-.2h-.6c0-.1,0,.3,0,.3h-.3s-.3,0-.3,0h-.3s-.3,0-.3,0v-.4h-.6c0,0,0,.5,0,.5h0s0,0,0,0l-1.2-.2-1.2-.2v.4h-.3s-.3,0-.3,0h-.3s-.3,0-.3,0h-.3s-.3-.1-.3-.1h-.3s-.3,0-.3,0v.4h-.6c0,0-.6-.2-.6-.2h-.6c0,0-.6-.2-.6-.2v.4h-.3s-.3,0-.3,0v-.4h-.6c0,0-.6-.2-.6-.2v.5h-.2s0,.2,0,.2h-.5c0,0-1.2-.3-1.2-.3h-.6c0-.1,0,.3,0,.3h-.3s-.3,0-.3,0h-.3s-.3,0-.3,0h-.3s-.3-.1-.3-.1h-.3s-.3,0-.3,0h-.3s-.3,0-.3,0h-.3s0,.1,0,.1h-.1s0,.2,0,.2h-.2s-.6-.1-.6-.1h-.6c0,0-.6-.2-.6-.2h-.6c0,0-.3-.1-.3-.1v.4h-.3s-.3-.1-.3-.1h-.3s-.3,0-.3,0v.3h0s0,0,0,0h-.3s-1.2-.2-1.2-.2v.4h-.3s-.3,0-.3,0h-.3s-.3,0-.3,0h-.3s-.3,0-.3,0h-.3s0,.3,0,.3h0s-.3,0-.3,0h-.6c0,0-.6-.2-.6-.2h-.6c0,0-.3-.1-.3-.1v.3h-.3s-.3,0-.3,0h-.3s-.3,0-.3,0h-.3s-.3,0-.3,0h-.3s0,.3,0,.3h-.6c0-.1-1.2-.3-1.2-.3h-.3s0,.2,0,.2h0s0,0,0,0h-.2s-.3,0-.3,0h-.3s-.3,0-.3,0h-.3s-.3,0-.3,0h-.3s0,.1,0,.1h-.2s0,.1,0,.1h-.5c0,0-.6-.2-.6-.2h-.6c0,0,0,0,0,0h-.2s0,.1,0,.1h-.2s-.3,0-.3,0h-.3s-.3,0-.3,0h-.3s-.3,0-.3,0h-.3s0,.1,0,.1h-.2s0,.2,0,.2l-2-.3h-.6c0,0-.3-.1-.3-.1v.3h-.3s-.3,0-.3,0h-.3s-.3,0-.3,0h-.3s-.3,0-.3,0h-.3s-.3,0-.3,0v.4h-.3c0,0-.6-.1-.6-.1h-.6c0,0-.6-.2-.6-.2v.2h-.2s0,.2,0,.2h-.2s-.3,0-.3,0h-.3s-.3,0-.3,0h-.3s-.3,0-.3,0h-.3s-.3,0-.3,0v.4h-.6c0,0-1.3-.3-1.3-.3v.3h0s0,0,0,0h-.3s-.3,0-.3,0h-.3c0,0-.3-.1-.3-.1h-.3s0,.1,0,.1h-.2s-.2,0-.2,0h0c0,.1,0,.1,0,.1h0c0,0-.6,0-.6,0h-.6c0,0-.6-.2-.6-.2h-.6c0,0,0,.3,0,.3h-.3s-.3,0-.3,0h-.3s-.3-.1-.3-.1v.4h-.6c0,0-.6-.2-.6-.2h-.3s0,.3,0,.3h-.3c0,0-.3-.1-.3-.1h-.3s-.3,0-.3,0h-.3s-.3,0-.3,0h-.3s-.3,0-.3,0h-.3s-.3-.1-.3-.1h-.3s-.3,0-.3,0h-.3s0,.1,0,.1h-.2s0,.2,0,.2h-.5c0,0-.6-.2-.6-.2h-.6c0-.1-.6-.2-.6-.2h-.6c0,0-.3-.1-.3-.1v.4h-.3s-.3,0-.3,0h-.3c0,0-.3-.1-.3-.1h-.3s-.3,0-.3,0h-.3s0,.3,0,.3h0s0,0,0,0h-.6c0,0-1.2-.3-1.2-.3h-.3s0,.2,0,.2h0s0,0,0,0h-.2s-.3,0-.3,0h-.3s-.3-.1-.3-.1h-.3s-.3,0-.3,0v.3h0s-.3,0-.3,0h-.6c0,0-.6-.2-.6-.2h-.6c0-.1-.6-.2-.6-.2h-.6c0,0,0,0,0,0h-.2s0,.2,0,.2h-.2s-.3,0-.3,0h-.3s-.3,0-.3,0h-.3c0,0-.3-.1-.3-.1h-.3s-.3,0-.3,0h-.3s-.3,0-.3,0h-.3s-.3,0-.3,0h-.3s-.3-.1-.3-.1v.2h-.2s0,.2,0,.2h-.5c0,0-.3-.1-.3-.1h-.3s-.3,0-.3,0h-.2s0,.2,0,.2h-.2s-.2,0-.2,0h-.2s-.2,0-.2,0h-.1s-.2,0-.2,0h0c0,0,0,0,0,0h0c0,0,0,0,0,0h-.3s-.3,0-.3,0h-.3s0,.1,0,.1h-.2s-.2,0-.2,0h-.2s-.1,0-.1,0h-.2s-.2,0-.2,0h0c0,.1,0,.1,0,.1h0s-.3,0-.3,0h-.6c0,0-.3-.1-.3-.1v.2h-.2s-.1,0-.1,0h-.2s-.2,0-.2,0h-.2s0,.1,0,.1h0s0,0,0,0h-.1s-.3,0-.3,0h-.3s-.3,0-.3,0v.2h-.2s-.1,0-.1,0h-.2s-.2,0-.2,0h-.2s-.2,0-.2,0h0c0,.1,0,.1,0,.1h0s-.6,0-.6,0h-.3c0,0-.2,0-.2,0v.2h-.2s-.2,0-.2,0h-.2s-.2,0-.2,0h-.2s-.2,0-.2,0h0c0,.1,0,.1,0,.1h0s-.1,0-.1,0h-.3s-.3,0-.3,0h-.3c0,0,0,.1,0,.1h-.2s-.2,0-.2,0h-.1s-.2,0-.2,0h-.2s-.2,0-.2,0h0c0,.1,0,.1,0,.1h0s-.3,0-.3,0h-.6c0-.1-.2-.1-.2-.1v.2h-.2s-.2,0-.2,0h-.2s-.1,0-.1,0h-.2s-.2,0-.2,0h0c0,.1,0,.1,0,.1h0s-.1,0-.1,0h-.3s-.3,0-.3,0h-.3s0,.1,0,.1h-.2s-.2,0-.2,0h-.1s-.2,0-.2,0h-.2s-.2,0-.2,0h0c0,.1,0,.1,0,.1h0s-.6,0-.6,0h-.3s-.2,0-.2,0v.2h-.2s-.1,0-.1,0h-.2s-.2,0-.2,0h-.2s-.2,0-.2,0h0c0,.1,0,.1,0,.1h0s-.1,0-.1,0h-.3s-.3,0-.3,0h-.3s0,.1,0,.1h-.1s-.2,0-.2,0h-.2s-.2,0-.2,0h-.2s-.2,0-.2,0h-.1s0,.1,0,.1h0s-.1,0-.1,0h-.6c0,0-.6-.2-.6-.2v.2h-.2s-.2,0-.2,0h-.2s-.2,0-.2,0h-.2s-.2,0-.2,0h0c0,0,0,0,0,0h0c0,0-.2,0-.2,0h-.3s-.3,0-.3,0h-.3s0,.1,0,.1h-.2s-.2,0-.2,0h-.2s-.1,0-.1,0h-.2s-.2,0-.2,0h-.2s0,0,0,0h0s0,0,0,0h-.4c0,0-.6-.2-.6-.2h-.2s0,.2,0,.2h-.2s-.2,0-.2,0h-.1s-.2,0-.2,0h-.2s-.2,0-.2,0h-.2s-.2,0-.2,0h-.1s0,.1,0,.1h-.3s-.3,0-.3,0h-.3v-.4h-.6c0,0,0,.3,0,.3h-.3s-.3,0-.3,0v-.4h-.6c0,0,0,.6,0,.6h-.6c0,0-.6-.2-.6-.2h-.6c0,0-.6-.2-.6-.2h-.6c0,0,0,.3,0,.3h-.3s-.3,0-.3,0h-.3s0,.1,0,.1h-.2s0,.2,0,.2h-.8c0-.1-2.5-.5-2.5-.5l-1.2-.2v.7h-.6c0,0-.6-.2-.6-.2h-.6c0,0-.6-.2-.6-.2h-.6c0,0,0,.3,0,.3h-.3s-.3-.1-.3-.1h-.3s-.3,0-.3,0h-.3s0,.3,0,.3h-.3s-1.2-.2-1.2-.2l-1.2-.2-1.2-.2v.4h-.3c0,0,0,.1,0,.1h-.2s0,.2,0,.2h-.2s-.6-.1-.6-.1h-.6c0,0-.6-.2-.6-.2h-.6c0,0,0,.3,0,.3h-.3s-.3,0-.3,0h-.3s-.3,0-.3,0v-.4h-.6c0,0,0,.5,0,.5h0s0,0,0,0l-2.4-.4-1.2-.2h-.6c0,0,0,.3,0,.3h-.3s0,.3,0,.3h-.3s-.6-.1-.6-.1h-.6c0,0-.6-.2-.6-.2h-.6c0,0-.6-.2-.6-.2v.4h-.3s-.3,0-.3,0h-.3s-.3,0-.3,0v.3h0s0,0,0,0h-.5c0,0-1.2-.3-1.2-.3l-1.2-.2v.4h-.3s-.3,0-.3,0v-.3h-.6c0-.1,0,.3,0,.3h-.3s-.3,0-.3,0v.4h-.6c0,0-.6-.2-.6-.2h-.6c0,0-.6-.2-.6-.2h-.6c0,0,0,.3,0,.3h-.3s-.3,0-.3,0h-.3s-.3,0-.3,0h-.3s-.3,0-.3,0v.4h-.6c0-.1-1.2-.3-1.2-.3h-.3s0,.2,0,.2h0s0,0,0,0h-.2s-.3,0-.3,0h-.3c0,0-.3-.1-.3-.1h-.3s-.3,0-.3,0h-.3s0,.3,0,.3h-.6c0,0-.6-.2-.6-.2h-.3c0,0,0,.3,0,.3h-.3s-.3,0-.3,0h-.3s-.3,0-.3,0h-.3s-.3-.1-.3-.1v.4h-.3s-1.2-.2-1.2-.2h-.3s0,.3,0,.3h-.3s-.3,0-.3,0h-.3s-.3,0-.3,0v.3h0s0,0,0,0h-.3s-.6-.1-.6-.1h-.3s0,.3,0,.3h-.3s-.3,0-.3,0h-.3s-.3,0-.3,0v.3h-.9c0-.1,0,0,0,0h-.2s0,.2,0,.2h-.2s-.3,0-.3,0h-.3s-.3,0-.3,0v.2h-.2s0,.1,0,.1h-.5c0,0-.6-.2-.6-.2v.3h0s-.3,0-.3,0h-.3s-.3-.1-.3-.1h-.3v-.4h-.6c0-.1-.6-.2-.6-.2h-.6c0,0-.6-.2-.6-.2h-.3s0,.3,0,.3h-.3s-.3-.1-.3-.1h-.3s-.3,0-.3,0h-.3s-.3,0-.3,0h-.3s0,.3,0,.3h0s-1.2-.2-1.2-.2l-1.3-.2v.4h-.3s-.3,0-.3,0h-.3s-.3-.1-.3-.1h-.3s-.3,0-.3,0h-.3s0,.3,0,.3h-.3s-.6-.1-.6-.1h-.6c0,0-.6-.2-.6-.2v.2h-.2s0,.2,0,.2h-.2s-.3,0-.3,0h-.3s-.3,0-.3,0h-.3s-.3,0-.3,0h-.3c0,0-.3,0-.3,0v.3h-.6c0,0-1.3-.3-1.3-.3h-.3s0,.1,0,.1h-.2s0,.2,0,.2h-.1s-.3,0-.3,0h-.3s-.3,0-.3,0h-.3s-.3,0-.3,0h-.3s-.3,0-.3,0v.4h-.3c0,0-.6-.2-.6-.2h-.6c0,0-.6-.2-.6-.2v.3h0s0,0,0,0h-.2s-.3,0-.3,0h-.3s-.3,0-.3,0h-.3s-.3,0-.3,0h-.3s-.3,0-.3,0v.4l-1.3-.2h-.6c0,0,0,.2,0,.2h0s0,0,0,0h-.2s-.3,0-.3,0h-.3c0,0-.3-.1-.3-.1h-.3s-.3,0-.3,0v.3h0s0,0,0,0h-.5c0,0-.6-.2-.6-.2h-.6c0-.1,0,.2,0,.2h0s0,0,0,0h-.2s-.3,0-.3,0h-.3s-.3,0-.3,0h-.3s-.3-.1-.3-.1v.3h0s0,0,0,0h-.5c0,0-.6-.2-.6-.2h-.3s0,.1,0,.1h-.1s0,.2,0,.2h-.2s-.3,0-.3,0h-.3c0,0-.3-.1-.3-.1h-.3s0,.3,0,.3h-.6c0,0-.6-.2-.6-.2h-.6c0,0-.6-.2-.6-.2h-.6c0,0,0,.2,0,.2h0s0,0,0,0h-.2s-.3,0-.3,0h-.3c0,0-.3,0-.3,0h-.3c0,0-.3-.1-.3-.1h-.3s-.3,0-.3,0h-.3s-.3,0-.3,0h-.3s-.3,0-.3,0v.2h-.2s0,.1,0,.1l-1.1-.2-1.3-.2-1.2-.2h-.3c0,0,0,.3,0,.3h-.3s-.3,0-.3,0h-.3s-.3,0-.3,0h-.3s-.3,0-.3,0h-.3s-.3,0-.3,0h-.3c0,0-.3-.1-.3-.1h-.3s-.3,0-.3,0v.4h0s-.3,0-.3,0h-.6c0,0-.6-.2-.6-.2h-.6c0,0-.6-.2-.6-.2h-.6c0,0-.3-.1-.3-.1v.3h0s0,0,0,0h-.2s-.3,0-.3,0h-.3s-.3,0-.3,0h-.3s-.3,0-.3,0h-.3s-.3,0-.3,0h-.3s-.3,0-.3,0h-.3s0,.1,0,.1h-.2s-.2,0-.2,0h-.1s0,.1,0,.1h-.8c0-.1-1.3-.3-1.3-.3h-.3s0,.3,0,.3h-.3s-.3,0-.3,0h-.3s-.3,0-.3,0h-.3s0,.3,0,.3h-.6c0,0-.6-.2-.6-.2h-.3c0,0,0,.2,0,.2h0s0,0,0,0h-.2s-.3,0-.3,0h-.3s-.3,0-.3,0h-.3s-.3,0-.3,0h-.3s-.3,0-.3,0h-.3c0,0-.3-.1-.3-.1v.2h-.2s-.2,0-.2,0h-.2s0,.2,0,.2h-.5c0,0-1.3-.3-1.3-.3l-1.2-.2v.2h-.1s-.2,0-.2,0h-.2s-.1,0-.1,0h-.2s0,.2,0,.2h-.2s-.3,0-.3,0h-.3c0,0-.3-.1-.3-.1h-.3s-.3,0-.3,0h-.3s-.3,0-.3,0h-.3s-.3,0-.3,0h-.3s-.3,0-.3,0v.3h-.6c0,0-.6-.2-.6-.2h-.6c0,0-.6-.2-.6-.2h-.6c0,0-.6-.2-.6-.2h-.6c0-.1,0,.3,0,.3h-.3s0,.3,0,.3l-2.2-.3h-.6c0,0,0,.6,0,.6h-.6c0-.1-.6-.2-.6-.2h-.6c0,0,0,.3,0,.3h-.3c0,0,0,.3,0,.3h-.9c0-.1-1.2-.3-1.2-.3v.5h-.2s0,.2,0,.2h-.5c0,0-.6-.2-.6-.2h-.6c0,0-.6-.2-.6-.2v.7l-2.5-.4v.7h-.6c0,0-.5-.2-.5-.2v-.2h-.1v-.6l-1.3-.2-2.5-.4-2.5-.4-1.2-.2h-.6c0,0,0,.6,0,.6h-.6c0,0-.6-.2-.6-.2h-.6c0,0-.6-.2-.6-.2h-.6c0-.1-.6-.2-.6-.2v.5h-.2s0,.2,0,.2h-.5c0,0-1.2-.3-1.2-.3l-1.2-.2v.4h-.3s0,.3,0,.3h-.3s-.6-.1-.6-.1h-.6c0,0-.6-.2-.6-.2h-.6c0-.1,0,.4,0,.4h-.2s0,.2,0,.2h-.5c0,0-2.5-.5-2.5-.5l-2.5-.4-2.5-.4h-.6c0,0,0,.3,0,.3h-.3s0,.3,0,.3h-.3s-.6-.1-.6-.1h-.6c0,0-.6-.2-.6-.2h-.6c0,0-.6-.2-.6-.2h-.6c0,0-.6-.2-.6-.2v.7h-.6c0-.1-1.2-.3-1.2-.3l-1.2-.2h-.6c0-.1,0,.6,0,.6h-.6c0,0-.6-.2-.6-.2h-.6c0-.1-.6-.2-.6-.2h-.6c0,0-.6-.2-.6-.2v.7l-1.9-.3-1.2-.2h-.6c0,0,0,.6,0,.6h-.6c0-.1-.6-.2-.6-.2h-.6c0,0-.6-.2-.6-.2h-.6c0,0,0,.6,0,.6l-1.2-.2-1.2-.2h-.6c0,0,0,.6,0,.6h-.6c0,0-.6-.2-.6-.2h-.6c0,0-.6-.2-.6-.2h-.6c0-.1,0,.6,0,.6l-1.2-.2-1.2-.2h-.6c0,0,0,.6,0,.6h-.6c0-.1-.6-.2-.6-.2h-.6c0,0-.6-.2-.6-.2h-.6c0-.1,0,.6,0,.6h0s-1.2-.2-1.2-.2l-1.2-.2-1.3-.2h-.3v-.4h-.3v-.4h-.6c0-.1-.6-.2-.6-.2h-.6c0,0-.6-.2-.6-.2h-.6c0,0-.6-.2-.6-.2v.7h-.6c0,0-.6-.2-.6-.2h-.6c0,0-1.2-.3-1.2-.3l-1.2-.2v.4h-.3s0,.3,0,.3h-.3s-.6-.1-.6-.1h-.6c0,0-.6-.2-.6-.2h-.6c0,0-.6-.2-.6-.2h-.6c0,0-.6-.2-.6-.2h-.6c0,0,0,.6,0,.6l-1.9-.3-2.5-.4-1.2-.2h-.6c0,0,0,.5,0,.5h0s0,0,0,0h-.5c0,0-.6-.2-.6-.2h-.6c0,0-.6-.2-.6-.2h-.6c0,0-.6-.2-.6-.2h-.6c0-.1,0,.4,0,.4h-.2s0,.2,0,.2l-1.1-.2-1.3-.2-1.2-.2h-.6c0,0,0,.3,0,.3h-.3s0,.3,0,.3h-.3s-.6-.1-.6-.1h-.6c0,0-.6-.2-.6-.2h-.6c0,0-.6-.2-.6-.2h-.6c0,0,0,.3,0,.3h-.3s0,.3,0,.3l-2.2-.3-1.2-.2h-.6c0-.1,0,.3,0,.3h-.3s0,.3,0,.3h-.3s-.6-.1-.6-.1h-.6c0,0-.6-.2-.6-.2h-.6c0,0-.6-.2-.6-.2h-.6c0,0,0,.3,0,.3h-.3s0,.3,0,.3h-.9c0-.1-1.2-.3-1.2-.3l-1.2-.2-1.2-.2-1.2-.2v.4h-.3s0,.3,0,.3h-.3s-.6-.1-.6-.1h-.6c0,0-.6-.2-.6-.2h-.6c0-.1-.6-.2-.6-.2h-.6c0,0-.6-.2-.6-.2v.7l-2.5-.4-1.2-.2h-.6c0,0-.6-.2-.6-.2l-1.2-.2v.7h-.6c0-.1-.6-.2-.6-.2h-.6c0,0-.6-.2-.6-.2h-.6c0,0-.6-.2-.6-.2v.4h-.3s0,.3,0,.3h-.9c0-.1-1.3-.3-1.3-.3l-1.2-.2-1.2-.2v.6h0s0,0,0,0h-.6c0,0-.6-.2-.6-.2h-.6c0,0-.6-.2-.6-.2h-.6c0-.1-.6-.2-.6-.2h-.6c0,0-.6-.2-.6-.2v.7l-2.5-.4-2.5-.4v.7h-.6c0,0-.6-.2-.6-.2h-.6c0-.1-.6-.2-.6-.2h-.6c0,0-.6-.2-.6-.2h-.6c0,0,0,.6,0,.6h-.6c0,0-1.2-.3-1.2-.3h-.6c0,0,0,.3,0,.3h-.3s0,.3,0,.3h-.3s-.6-.1-.6-.1h-.6c0,0-.6-.2-.6-.2h-.6c0,0-.6-.2-.6-.2v.4h-.3s0,.3,0,.3l-1.6-.2-5-.8h-.6c0,0,0,.4,0,.4h-.2s0,.2,0,.2h-.5c0,0-.6-.2-.6-.2h-.6c0,0-.6-.2-.6-.2h-.6c0,0-.6-.2-.6-.2h-.6c0-.1-.6-.2-.6-.2v.7h-.6c0,0-1.2-.3-1.2-.3l-1.2-.2h-.6c0,0,0,.3,0,.3h-.3s0,.3,0,.3h-.3s-.6-.1-.6-.1h-.6c0,0-.6-.2-.6-.2h-.6c0-.1-.6-.2-.6-.2h-.6c0,0,0,.6,0,.6l-1.2-.2-2.5-.4v.6h0s0,0,0,0h-.6c0,0-.6-.2-.6-.2h-.6c0,0-.6-.2-.6-.2h-.6c0,0-.6-.2-.6-.2h-.6c0,0,0,.6,0,.6h-.6c0,0-1.2-.3-1.2-.3l-1.3-.2-1.2-.2-1.2-.2v.6h0s0,0,0,0h-.6c0,0-.6-.2-.6-.2h-.6c0,0-.6-.2-.6-.2h-.6c0,0-.6-.2-.6-.2h-.6c0,0-.6-.2-.6-.2h-.6c0-.1,0,.3,0,.3h-.3s0,.3,0,.3l-1.6-.2-2.5-.4-1.3-.2v.7h-.6c0,0-.6-.2-.6-.2h-.6c0,0-.6-.2-.6-.2h-.6c0,0,0,.6,0,.6h-.6c0,0-1.3-.3-1.3-.3l-1.2-.2v.7h-.6c0,0-.6-.2-.6-.2h-.6c0-.1-.6-.2-.6-.2h-.6c0,0-.6-.2-.6-.2h-.6c0,0-.6-.2-.6-.2h-.6c0,0,0,.6,0,.6h0s0,0,0,0l-1.8-.3-2.5-.4-1.3-.2v.6h0s0,0,0,0h-.6c0,0-.6-.2-.6-.2h-.6c0,0-.6-.2-.6-.2h-.6c0,0-.6-.2-.6-.2v.6h0s0,0,0,0l-1.2-.2-1.3-.2h-.6c0,0-.6-.2-.6-.2l-1.2-.2-1.2-.2-1.2-.2-1.2-.2h-.6c0,0,0,.6,0,.6h-.6c0,0-.6-.2-.6-.2h-.6c0,0-.6-.2-.6-.2h-.6c0-.1-.6-.2-.6-.2h-.6c0,0-.6-.2-.6-.2v.7h-.6c0-.1-2.2-.4-2.2-.4h-.3s0,.3,0,.3h-.3s-.3,0-.3,0h-.3s-.3,0-.3,0v.2h-.2s0,.2,0,.2h-.5c0,0-.3-.1-.3-.1v.2h-.1s0,.1,0,.1h-.2s-.3,0-.3,0h-.3s0,.2,0,.2h0s0,0,0,0h-.5c0,0-.6-.2-.6-.2v.3h-.3s-.3,0-.3,0h-.3s-.3,0-.3,0h-.3s-.3,0-.3,0v.2h-.2s0,.2,0,.2h-.5c0,0-.6-.2-.6-.2h-.6c0,0-.6-.2-.6-.2h-.3s0,.3,0,.3h-.3s-.3,0-.3,0h-.3c0,0-.3,0-.3,0h-.3c0,0-.3-.1-.3-.1h-.3s0,.2,0,.2h0s0,0,0,0l-1.2-.2-1.2-.2v.3h-.3s-.3,0-.3,0h-.3s-.3,0-.3,0h-.3s-.3,0-.3,0h-.3s0,.3,0,.3h-.3s-.6-.1-.6-.1h-.6c0,0-.6-.2-.6-.2v.2h-.2s0,.2,0,.2h-.2s-.3,0-.3,0h-.3s-.3-.1-.3-.1h-.3s-.3,0-.3,0h-.3s0,.1,0,.1h-.2s0,.2,0,.2h-.8c0-.1-1.2-.3-1.2-.3h-.3s0,.3,0,.3h-.3s-.3,0-.3,0h-.3s-.3,0-.3,0h-.3s-.3,0-.3,0h-.3s-.3-.1-.3-.1v.2h-.1s0,.2,0,.2h-.2s-.6-.1-.6-.1h-.6c0,0-.6-.2-.6-.2h-.6c0,0,0,.3,0,.3h-.3c0,0-.3-.1-.3-.1h-.3s-.3,0-.3,0h-.3s-.3,0-.3,0h-.3s0,.3,0,.3l-2.2-.3v.2h-.2s0,.2,0,.2h-.2s-.3,0-.3,0h-.3s-.3-.1-.3-.1h-.3s0,.1,0,.1h-.2s-.1,0-.1,0v-.2h-.3s-.3,0-.3,0h-.3c0,0,0,.3,0,.3h-.3s-.6-.1-.6-.1h-.6c0,0-.6-.2-.6-.2h-.3c0,0,0,.3,0,.3h-.3s-.3,0-.3,0h-.3s-.3,0-.3,0h-.3s-.3,0-.3,0h-.3s0,.1,0,.1h-.2s0,.1,0,.1l-1.1-.2-1.2-.2v.3h0s0,0,0,0h-.3s-.3-.1-.3-.1h-.3s-.3,0-.3,0h-.3s-.3,0-.3,0h-.3s-.3,0-.3,0v.4h-.6c0,0-.6-.2-.6-.2h-.6c0,0-.3-.1-.3-.1v.2h-.2s0,.2,0,.2h-.2s-.3,0-.3,0h-.3s-.3,0-.3,0h-.3s-.3,0-.3,0h-.3s-.3-.1-.3-.1v.3h0s0,0,0,0h-.2s-1.2-.2-1.2-.2h-.3s0,.3,0,.3h-.3s-.3-.1-.3-.1h-.3s-.3,0-.3,0h-.3s-.3,0-.3,0h-.3s0,.3,0,.3h-.6c0,0-.6-.2-.6-.2h-.6c0-.1-.3-.1-.3-.1v.3h0s-.3,0-.3,0h-.3s-.3,0-.3,0h-.3s-.3,0-.3,0h-.3s-.3,0-.3,0v.2h-.2s0,.2,0,.2h-.5c0,0-1.2-.3-1.2-.3h-.6c0,0,0,.3,0,.3h-.3s-.3,0-.3,0h-.3s-.3,0-.3,0h-.3c0,0-.3-.1-.3-.1h-.3s-.3,0-.3,0h-.3s-.3,0-.3,0v.4h-.6c0,0-.6-.2-.6-.2h-.6c0,0-.6-.2-.6-.2h-.6c0,0,0,.3,0,.3h-.3s-.3,0-.3,0h-.3s-.3-.1-.3-.1h-.3s-.3,0-.3,0h-.3s-.3,0-.3,0h-.3s-.3,0-.3,0v.2h-.1s0,.2,0,.2l-1.1-.2h-.6c0,0-.3-.1-.3-.1v.2h-.2s0,.2,0,.2h-.2s-.3,0-.3,0h-.3s-.3,0-.3,0h-.3s-.3,0-.3,0v.3h0s0,0,0,0h-.3s-.6-.1-.6-.1h-.6c0,0-.3-.1-.3-.1v.4h-.3s-.3-.1-.3-.1h-.3s-.3,0-.3,0h-.3s-.3,0-.3,0v.3h-.9c0-.1-.6-.2-.6-.2h-.3s0,.3,0,.3h0s-.3,0-.3,0h-.3s-.3,0-.3,0h-.3s-.3,0-.3,0h-.3s-.3,0-.3,0h-.3s0,.3,0,.3h-.3c0,0-.6-.1-.6-.1h-.6c0,0-.6-.2-.6-.2v.3h0s0,0,0,0h-.2s-.3,0-.3,0h-.3s-.3,0-.3,0h-.3s-.3,0-.3,0h-.3c0,0-.3,0-.3,0v.3h-.6c0,0-1.2-.3-1.2-.3h-.3c0,0,0,.1,0,.1h-.2s0,.2,0,.2h-.2s-.3,0-.3,0h-.3s-.3,0-.3,0h-.3s-.3,0-.3,0h-.3s0,.3,0,.3h-.6c0,0-.6-.2-.6-.2h-.6c0,0,0,.2,0,.2h0s0,0,0,0h-.2s-.3,0-.3,0h-.3s-.3,0-.3,0h-.3s-.3,0-.3,0h-.3s0,.3,0,.3h-.9c0-.1-.6-.2-.6-.2h-.3s0,.3,0,.3h-.3c0,0-.3,0-.3,0h-.3c0,0-.3-.1-.3-.1h-.3s-.3,0-.3,0v.3h0s0,0,0,0h-.2s-.6-.1-.6-.1h-.3s0,.3,0,.3v10.3h.2v.4h-.2s0,.3,0,.3v6.6h-.2s0,.1,0,.1h-.2s0,.3,0,.3v3.2h-.3s0,.3,0,.3v8.2h.3v4.7h.3v2.2h.2v.2h.2v2h.3c0,0,0,0,0,0v1.4h-.3c0,0,0,.7,0,.7v4.1h-.2s0,.2,0,.2h-.5c0,0,0,.7,0,.7v12.1h.6v3h-.6c0-.1,0,.6,0,.6v7.1h.3v.4h.3v15.4h-.6c0,0,0,.6,0,.6v7.1h.6v3.6h0s0,0,0,0h-.6c0,0,0,.6,0,.6v10.7h.6v27.2h.3v.8h-.3c0,0,0,.7,0,.7v13.6h.3v.4h.3v10.8h-.3c0,0,0,.3,0,.3v.7h-.3s0,1.4,0,1.4v.9h-.2s0,.1,0,.1h-.2s0,.3,0,.3v.7h-.3c0,0,0,.7,0,.7v1.7h0s0,0,0,0h-.3s0,.3,0,.3v.7h-.3s0,1.4,0,1.4v3.6h.3v.8h-.3c0,0,0,1.4,0,1.4h.3v1.5h-.3s0,1.4,0,1.4v2.1h.3v1.8h.2c0,.1,0,.1,0,.1v44.7h-.2s0,.2,0,.2h-.2s0,.3,0,.3v.7h-.3s0,.7,0,.7h.6v.2h0v3.5h.6v2.9h.6c0,.1,0,.1,0,.1v27.8h-.6c0,0,0,.6,0,.6v17.9h-.6c0-.1,0,.6,0,.6v2.1h.6c0,.1,0,.1,0,.1v34.3h.3v.8h-.3s0,2.8,0,2.8v11.4h-.6c0,0,0,.6,0,.6h.3v.8h-.3c0,0,0,.7,0,.7v1.4h.3v1.5h-.3c0,0,0,.7,0,.7h.3v1.1h.3c0,0,0,0,0,0v18.2h.3v4.3h.2v.2h.1v10.5h0s-.3,0-.3,0v5.7h-.3s0,2.8,0,2.8v4.3h.3v22.2h-.3s0,.7,0,.7v8.6h.3v1.5h.3v1.1h.3v.4h.3c0,0,.6.1.6.1h0s0,0,0,0v.3h.3c0,0,.3,0,.3,0v.4h.6c0,0,.3.1.3.1v.4h.3s.3,0,.3,0h.3c0,0,0,0,0,0v.4h.6c0,0,.2.1.2.1v.2h.2v.2h.3c0,0,.3.1.3.1h.2v.2h.2v.2h.6v.5h.3s.3.1.3.1h.3v.4h.3s.6.1.6.1h0v.4h.3s.3,0,.3,0h.3c0,0,0,0,0,0v.3h.3c0,0,.6.1.6.1h0c0,0,0,.1,0,.1v.3h.3c0,0,.3.1.3.1h.2v.2h.2v.2h.3c0,0,.5.1.5.1v.2h.2v.2h.3s.3,0,.3,0h.2v.2h.2v.2h.3s.3,0,.3,0v.4h.3s.3,0,.3,0h.3v.4h.9v.5h.3c0,0,.3.1.3.1h.3v.4h.6c0,0,.3.1.3.1v.4h.3s.3,0,.3,0h.3v.4h.9v.2h0v.3h.3s.3,0,.3,0h.2c0,.1,0,.1,0,.1v.3h.6c0,0,.2.1.2.1h0c0,0,0,.1,0,.1v.3h.3s.3,0,.3,0h.2v.2h.1v.2h.8v.3h.1v.2h.3s.3.1.3.1h.2v.2h.2v.2h.6v.4h.3c0,0,.3.1.3.1h.3v.4h.3c0,0,.6.1.6.1v.4h.3s.3,0,.3,0h.3v.4h.3s.6.1.6.1v.4h.3s.3.1.3.1h.3v.4h.3s.6.1.6.1h0s0,0,0,0v.3h.3s.3,0,.3,0h.2c0,.1,0,.1,0,.1v.3h.3s.6.1.6.1h0c0,0,0,0,0,0v.3h.3s.3.1.3.1h.2v.2h.2v.2h.3s.5.1.5.1v.2h.2v.2h.3s.3,0,.3,0v.4h.6c0,0,.3.1.3.1v.4h.3s.3,0,.3,0h.3v.4h.6c0,0,.2.1.2.1h0c0,0,0,0,0,0v.3h.3s.3.1.3.1h.2v.2h.2v.2h.6v.5h.3s.3,0,.3,0h.3v.2h.2s.1,0,.1,0v.2h.6c0,.1,0,.1,0,.1v.3h.3s.3,0,.3,0h.1v.2h.2v.2h.3s.3,0,.3,0v.4h.3v.4h.6c0,.1.6.2.6.2h.6c0,0,.3.1.3.1v.4h.3v.4h.6c0,0,.6.2.6.2h.6c0,0,.3.1.3.1v.4h.3v.4h.6c0,0,.5.2.5.2v.2h.2v.6h.6c0,.1.5.2.5.2v.2h.2v.6h.6c0,0,.3.1.3.1v.4h.3v.4h.6c0,0,.3.1.3.1v.4h.3v.4h.6c0,0,.3.1.3.1v.4h.3v.4h.6c0,0,.6.2.6.2h.6c0,0,.3.1.3.1v.4h.3v.4h.6c0,0,1.2.3,1.2.3v.7h.6c0,0,.6.2.6.2h.6v.2h0v.6h.6c0,.1.9.2.9.2v.4h.3v.4h.6c0,0,.6.2.6.2h0s0,0,0,0v.7l1.2.2v.7h.6c0,.1.6.2.6.2h.3v.4h.3v.4h.6c0,0,.6.2.6.2v.7h.6c0,0,.6.2.6.2h.6v.8l1.2.2h.5v.2h.2v.6h.6c0,0,.6.2.6.2h.3v.4h.3v.4l1.3.2v.7h.6c0,0,.6.2.6.2h.6v.8h.6c0,0,.9.2.9.2v.4h.3v.4h.6c0,.1.5.2.5.2h0c0,0,0,.1,0,.1v.6l1.2.2v.7h.6c0,0,.6.2.6.2v.7l1.2.2h.9v.5h.3v.4h.6c0,0,.3.1.3.1v.4h.3v.4h.9v.5h.3v.4h.6c0,0,.6.2.6.2h.6c0,0,.6.2.6.2h.6c0,0,.3.1.3.1v.4h.3v.4l1.2.2v.7h.6c0,.1.6.2.6.2v.7l1.3.2v.7h.6c0,0,.6.2.6.2v.7l1.2.2h.6v.8h.6c0,0,.6.2.6.2h.6c0,.1,0,.1,0,.1v.7l1.6.2v.3h.3v.4h.6c0,0,.6.2.6.2h.3v.4h.3v.4l1.2.2h.6v.8h.6c0,0,.6.2.6.2h.6v.8l2.5.4v.7h.6c0,0,.6.2.6.2h.6c0,0,.6.2.6.2v.7l1.2.2h.6v.2h0v.6h.6c0,.1.6.2.6.2h.3v.4h.3v.4l1.2.2h.3v.4h.3v.4h.6v.8l1.1.2v.2h.1v.5h.6c0,.1.6.2.6.2v.7l1.3.2v.7h.6c0,0,.6.2.6.2v.7l1.2.2h.3v.4h.3v.4h.6c0,0,.3.1.3.1v.4h.3v.4h.6c0,0,.6.2.6.2h0c0,0,0,0,0,0v.6h.6c0,0,.6.2.6.2v.7h.6c0,0,.9.2.9.2v.4h.3v.4h.6c0,0,.6.2.6.2v.7l1.9.3v.7h.6c0,0,.6.2.6.2h.6v.8l1.2.2h.6v.8h.6c0,.1.6.2.6.2h.6v.8l2.3.4v.2h.2v.6h.6c0,0,.6.2.6.2h.6v.8h.6c0,0,1.2.3,1.2.3v.7h.6c0,0,.6.2.6.2h.6v.8h.6c0,0,1.2.3,1.2.3h.3v.4h.3v.4h.6c0,0,.6.2.6.2h.5v.2h.1v.6l1.3.2v.7h.6c0,0,.6.2.6.2v.7l1.7.3v.2h.2v.6h.6c0,0,.6.2.6.2v.7h.6c0,0,1.2.3,1.2.3h0c0,0,0,.1,0,.1v.6h.6c0,0,.6.2.6.2h.3v.4h.3v.4h.6c0,0,.9.2.9.2v.4h.3v.4h.6c0,0,.6.2.6.2h.6v.8h.6c0,0,1.2.3,1.2.3h.3v.4h.3v.4h.6c0,0,.6.2.6.2v.7h.6c0,0,.9.2.9.2v.3h.3v.4h.6c0,0,.5.2.5.2h0c0,0,0,0,0,0v.6l1.2.2v.7h.6c0,0,.6.2.6.2h.6v.8h.6c0,0,1.1.3,1.1.3v.2h.2v.6h.6c0,0,.6.2.6.2h.3v.4h.3v.4h.6c0,.1.6.2.6.2v.7h.6c0,0,.6.2.6.2h.6v.8l1.9.3v.7h.6c0,0,.6.2.6.2h.5v.2h.2v.5l1.2.2h.3v.4h.3v.4h.6c0,0,.6.2.6.2h.3v.4h.3v.4l1.7.3v.2h.1v.6h.6c0,0,.6.2.6.2h.6c0,.1,0,.1,0,.1v.7l1.2.2h.5v.2h.2v.6h.6c0,0,.6.2.6.2v.7h.6c0,0,1.1.3,1.1.3v.2h.2v.6h.6c0,0,.6.2.6.2v.7l1.2.2h.6c0,.1,0,.1,0,.1v.7h.6c0,0,.6.2.6.2h.6v.8l1.2.2,1.1.2v.2h.1v.6h.6c0,0,.6.2.6.2h.5v.2h.2v.6h.6c0,0,.6.2.6.2v.7h.6c0,0,.6.2.6.2h.6v.8l1.2.2h.3v.4h.3v.4h.6c0,0,.6.2.6.2h.2v.2h.2v.2h.3v.4l1.2.2h0c0,0,0,0,0,0v.6h.6c0,0,.6.2.6.2h.3v.4h.3v.4h.6c0,0,.6.2.6.2v.7h.6c0,0,.6.2.6.2h.5v.2h.2v.6l1.2.2h.6v.2h0v.6h.6c0,0,.6.2.6.2h.6v.8l2.3.3v.2h.2v.6h.6c0,.1.6.2.6.2h.6v.8h.6c0,0,1.3.3,1.3.3h.3v.4h.3v.4h.6c0,0,.6.2.6.2v.7h.6c0,0,.9.2.9.2v.4h.3v.4h.6c0,0,.6.2.6.2v.7l1.2.2v.7h.6c0,0,.6.2.6.2h.5v.2h.2v.6h.6c0,0,.6.2.6.2v.7h.6c0,0,.6.2.6.2h.3v.4h.3v.4l1.2.2v.7h.6c0,0,.6.2.6.2v.7l1.6.2v.4h.3v.4h.6v.8l1.2.2h.6v.8h.6c0,0,.6.2.6.2h.6v.8l1.2.2h.6v.8h.6c0,0,.6.2.6.2h.6v.2h0v.6l1.2.2h.3v.4h.3v.4h.6c0,0,.6.2.6.2v.7h.6c0,0,.9.2.9.2v.4h.3v.4h.6c0,.1.6.2.6.2v.7l1.2.2v.7h.6c0,0,.6.2.6.2h.5v.2h0v.6h.6c0,0,.6.2.6.2v.7h.6c0,0,.6.2.6.2h.3v.4h.3v.4l1.2.2v.7h.6c0,0,.6.2.6.2h.3v.4h.3v.4h.6c0,0,.6.2.6.2v.7h.6c0,0,.6.2.6.2h.6v.8l1.3.2,1.2.2v.7h.6c0,0,.6.2.6.2h.6v.8h.6c0,0,1.3.3,1.3.3v.7h.6c0,0,.6.2.6.2h.5v.2h0v.6h.6c0,0,.9.2.9.2v.4h.3v.4h.6c0,0,.6.2.6.2v.7l1.9.3v.7h.6c0,0,.6.2.6.2h.6v.8l1.2.2h.5v.2h.2v.6h.6c0,0,.6.2.6.2h.3v.4h.3v.4l1.2.2v.7h.6c0,0,.6.2.6.2h.6v.8h.6c0,.1,1.2.3,1.2.3h0c0,0,0,.1,0,.1v.6h.6c0,.1.6.2.6.2h.3v.4h.3v.4h.6c0,0,.6.2.6.2v.7h.6c0,0,.6.2.6.2h.6v.8l1.2.2h.6v.8h.6c0,0,.6.2.6.2h.5v.2h.2v.6l1.2.2h.3v.4h.3v.4h.6c0,.1.6.2.6.2v.7h.6c0,0,1.3.3,1.3.3v.7h.6c0,0,.6.2.6.2h.6v.8h.6c0,0,1.2.3,1.2.3v.7h.6c0,0,.6.2.6.2h.6c0,0,.3.1.3.1v.4h.3v.4l1.2.2h.3v.4h.3v.4h.6v.8l1.3.2v-.5h.1s0-.2,0-.2h.5c0,0,0-.6,0-.6h0s0,0,0,0h.5c0,0,0-.6,0-.6h.6c0,0,0-.6,0-.6v-.4h.3c0,0,0-.3,0-.3h.3s0-.7,0-.7h.6c0,0,0-.6,0-.6v-.3h.3s0-.3,0-.3h.3s0-.6,0-.6h0s0,0,0,0h.6c0,0,0-.6,0-.6h.6c0,0,0-.6,0-.6h.6c0,0,0-.6,0-.6v-.5h.2s0-.2,0-.2h.5c0,0,0-.7,0-.7h.6c0,.1,0-.6,0-.6h.6c0,.1,0-.6,0-.6h.6c0,0,0-.6,0-.6v-1.1h.3s0-.3,0-.3h.3s0-.6,0-.6h0s.6,0,.6,0v-.7h0s0,0,0,0h.6c0,0,0-.6,0-.6h.6c0,0,0-.6,0-.6v-.5h.2s0-.1,0-.1h.5c0,0,0-1.4,0-1.4v-.7h.3s0-.3,0-.3v-1.4h.3s0-.3,0-.3v-1.1h.3s0-.3,0-.3h.3s0-1.4,0-1.4v-1.1h.3s0-.3,0-.3v-1.3h.2s0-.1,0-.1h.2s0-.7,0-.7v-.7h.3s0-.3,0-.3v-.3h0s0,0,0,0h.2s0-.7,0-.7v-.2h.2s0-.2,0-.2h.2s0-.3,0-.3h.3s0-.7,0-.7v-.3h.3s0-.3,0-.3v-.7h.3s0-1.4,0-1.4v-.4h.3s0-.3,0-.3v-.2h.2s0-.2,0-.2h.1s0-.3,0-.3v-.7h.3s0-.3,0-.3v-1.1h.3s0-.7,0-.7v-.3h0s0,0,0,0h.2s0-.3,0-.3v-1.1h.3s0-.3,0-.3v-.9h.2s0-.2,0-.2h.2s0-.3,0-.3v-.4h.3c0,0,0-.3,0-.3v-.4h.3s0-.3,0-.3v-.5h.2s0-.2,0-.2h.2s0-.5,0-.5h.1s0-.2,0-.2h.2s0-.3,0-.3h.3s0-.3,0-.3v-.2h.2s0-.2,0-.2h.2s0-.3,0-.3v-.3h0s.3,0,.3,0h.3s0-.3,0-.3h.3s.3,0,.3,0v-.3h.3s0-.3,0-.3v-.2h.2s0-.2,0-.2h.2s0-.2,0-.2h0s0,0,0,0h.2s0-.1,0-.1h.1s0-.2,0-.2h.2s.3,0,.3,0v-.3h.3s0-.2,0-.2h0s0,0,0,0h.2s.3,0,.3,0v-.4h.3s0-.3,0-.3h.3s.3,0,.3,0v-.4h.3s0-.3,0-.3v-1.1h-.3s0,0,0,0v-.4h-.3v-.4h-.2c0-.1,0-.1,0-.1v-.6h-.3v-.8h.3s0-.7,0-.7h.3s0-.3,0-.3v-1.4h.3s0-.3,0-.3v-3.6h-.3v-.4h-.2v-.2h-.1v-.6h-.2v-.2h-.2v-.6h-.1v-.2h-.2v-.6h-.2c0-.1,0-.1,0-.1v-.6h-.3c0,0,0,0,0,0v-.7h-.3v-.8h-.3v-.4h-.3v-.4h-.2v-.2h-.2v-.6h-.3c0,0,0,0,0,0v-.7h-.3v-.4h-.2v-.2h-.2v-.6h-.2c0-.1,0-.1,0-.1v-.6h-.3v-.8h-.3v-.8h-.3v-.8h-.3v-.8h-.3v-.4h-.2c0-.1,0-.1,0-.1v-.6h-.3v-.4h-.2v-.2h-.2v-.6h-.3v-.4h-.3c0,0,0,0,0,0v-.3h-.2c0-.1,0-.1,0-.1v-.3h-.2c0-.1,0-.1,0-.1v-.3h-.6c0-.1-.5-.2-.5-.2h0c0,0,0-.1,0-.1v-.3h-.3c0,0-.3,0-.3,0v-.4h-.3v-.4h-.3v-.4h-.3v-.4h-.2c0-.1,0-.1,0-.1v-.3h-.2v-.2h-.2v-.6h-.3v-.4h-.2v-.2h-.2v-1.6h-.3v-1.5h-.3v-.4h-.3s-.3,0-.3,0h0v-.4h-.3s-.3,0-.3,0v-.4h-.3s-.3,0-.3,0v-.4h-.3s-.6-.1-.6-.1h-.3v-.4h-.3s-.3,0-.3,0h-.3c0,0,0-.1,0-.1v-.3h-.3v-.4h-.3v-.4h-.6c0,0-.6-.2-.6-.2h-.6c0,0,0,0,0,0h-.2s0,.1,0,.1h-.1s-.3,0-.3,0h-.3c0,0,0,.3,0,.3h-.9c0-.1,0,.2,0,.2h-.3s-.3,0-.3,0v.4h-.6c0,0-.3-.1-.3-.1v.4h-.3s-.3,0-.3,0h-.3s-.3,0-.3,0v.4l-.9-.2v.4h-.3s-.3,0-.3,0v.2h-.2s0,.1,0,.1h-.5c0,0,0,.1,0,.1h-.2s0,.1,0,.1h-.1s-.3,0-.3,0v.4h-.6c0,0,0,.3,0,.3h-.3s-.3,0-.3,0h-.3s-.3,0-.3,0h-.3s0,.3,0,.3h-.3s-.6-.1-.6-.1h-.6c0,0-.6-.2-.6-.2v.4h-.3s-.3,0-.3,0h-.3c0,0-.3-.1-.3-.1v.4l-1.2-.2v.4h-.3c0,0-.3,0-.3,0h-.3s0,.3,0,.3h-.3s-.6-.1-.6-.1h-.6c0,0,0,.3,0,.3h-.3s-.3,0-.3,0h-.3s-.3,0-.3,0h-.3s0,.3,0,.3h-.3s-.3,0-.3,0v.2h-.2s0,.2,0,.2h-.1s-.3,0-.3,0h-.3c0,0,0,.3,0,.3h-.6c0-.1,0,.2,0,.2h0s0,0,0,0h-.2s-.3,0-.3,0h-.3s0,.1,0,.1h-.1s0,.1,0,.1l-1.4-.2-1.5-.2h0c0,0,0,0,0,0v-.3h-.3v-.4h-.6v-.5h-.3v-.4h-.3s-.6-.1-.6-.1l-1.2-.2h-.3v-.4h-.3v-.4h.3s0-.3,0-.3v-.4h-.3s-.1,0-.1,0v-.2h-.2v-.2h-.3v-.4h-.5v-.2h-.2v-.2h-.3v-.4h-.3c0,0-.1,0-.1,0v-.2h-.2v-.2h-.3v-.4h-.6v-.2h0v-.3h-.3v-.4h-.3s-.6-.1-.6-.1h-.5v-.2h-.2v-.2h-.1v-.2h-.2v-.9h-.2v-.2h-.1v-2h-.3v-.4h-.3v-.4h-.6c0,0-.6-.2-.6-.2v.2h-.2s0,.1,0,.1h-.1s-.3,0-.3,0h-.3s0,.3,0,.3h-.3s0,.3,0,.3h-.3s0,.2,0,.2h0s0,0,0,0h-.2s-.8-.2-.8-.2v-.2h-.2v-.2h-.2v-.2h-.1v-.6h-.3v-.8h-.3c0,0,0,0,0,0v-1h-.2v-.2h-.2v-.6h-.3c0,0-.6-.1-.6-.1v-.4h-.3c0,0-.3,0-.3,0h-.3v-.4h-.3s-.6-.1-.6-.1h-.9v-.5h-.3v-.4h-.6c0,0-.6-.2-.6-.2h-.6c0,0-.6-.2-.6-.2h-.5v-.2h0v-1.7h.3c0,0,0-.3,0-.3h.3c0,0,1.3.2,1.3.2v-.6h0s0,0,0,0h.6c0,0,0-.6,0-.6v-.6h0s0,0,0,0h.6c0,0,0-.6,0-.6v-.7h.6c0,0,0-.6,0-.6v-.7h.6c0,0,0-.6,0-.6v-.7h.6c0,.1,0-.6,0-.6v-.7h.6c0,0,0-.6,0-.6v-1.3h.2s0-.2,0-.2h.5c0,0,0-.6,0-.6v-1.4h-.6v-1.5h.6c0,0,0-.6,0-.6v-.7h.6c0,0,0-.6,0-.6v-.7h.6c0,0,0-.6,0-.6v-1.4h.6c0,.1,0-.6,0-.6h.6c0,.1,0-.6,0-.6v-1.1h.3c0,0,0-.3,0-.3h.3s.6.1.6.1v-1.4h.6c0,0,0-1.3,0-1.3h.6c0,0,0-.6,0-.6v-.5h.1s0-.2,0-.2h.5c0,0,0-.6,0-.6h.6c0,0,.6.2.6.2v-.4h.3s0-.3,0-.3h.3s0-.7,0-.7h.6c0,0,0-.6,0-.6v-1.8h.3c0,0,0-.3,0-.3h-.3v-1.1h.3s0-.3,0-.3h.3s0-.7,0-.7v-.3h.3s0-.3,0-.3h.3s0-.7,0-.7h.6c0,0,0-.6,0-.6v-.4h.3s0-.3,0-.3h.3s0-.5,0-.5h.2s0-.1,0-.1h.5c0,0,.6.2.6.2h.6c0,.1,0-.6,0-.6v-.7h-.6c0-.1,0-.1,0-.1v-.7h-.3v-.4h-.3v-1.8h.6c0,0,0-.6,0-.6h-.6c0,0-.6-.2-.6-.2l-2.5-.4-2.2-.3v-.4h-.3v-.4h-.6c0,0-.6-.2-.6-.2h-.6c0,0-.6-.2-.6-.2h-.6c0-.1-.6-.2-.6-.2h-.6c0-.1,0,.6,0,.6h-.6c0-.1-.6-.2-.6-.2v-.7h-.6c0,0-.6-.2-.6-.2v-.7h-.6c0,0-.6-.2-.6-.2h-.6c0,0-.6-.2-.6-.2h-.6c0,0-.6-.2-.6-.2h0v-.7h-.6c0,0-.6-.2-.6-.2h-.6c0,0-.6-.2-.6-.2h-.6v-.6h.2s0-.1,0-.1l1.1.2,5,.8,5,.8,1.6.2v.4h.3v.4h.6c0,0,.6.2.6.2h.6c0,0,.6.2.6.2h.6c0,0,.6.2.6.2v-.5h.1s0-.2,0-.2h.5c0,0,0-1.4,0-1.4v-.7h-.6v-.8h-.6v-.8h-.6v-.8h-.6c0,0-.5-.2-.5-.2v-.2h-.2v-.6h-.6v-.8h-.9v-.5h-.3v-.4h-.6c0-.1,0-.1,0-.1v-.7h-.6v-.8h-.6v-.8h.6c0,.1.3.1.3.1v.4h.3v.4h.6v.8h.9v.5h.3v.4h.6v.8h.6c0,0,.3.1.3.1v.4h.3v.4h.6c0,0,.2.1.2.1v.2h.1v.2h.3v.4h.6v.4h.3c0,0,0-.3,0-.3l.9.2v-.7h.6c0,0,0-.6,0-.6v-.7h.6c0,0,0-.6,0-.6v-2h.1s0-.1,0-.1h.5c0,0,0-.6,0-.6h-.6v-.8h.6c0,0,0-.6,0-.6h0s.6,0,.6,0v-1.1h.3s0-.3,0-.3h.3s0-.7,0-.7v-.5h.2s0-.1,0-.1h.5c0,0,0-.6,0-.6h.6c0,.1,0-.6,0-.6h.6c0,0,0-.6,0-.6h.6c0,.1,0-.6,0-.6h.6c0,.1,0-.6,0-.6h.6c0,.1,0-.6,0-.6v-.7h-.3v-.4h-.3v-1.1h-.6v-.8h-.6c0-.1-.3-.1-.3-.1v-.4h-.3v-.4h.6c0,.1.6.2.6.2v-.7h.6c0,0,0-.6,0-.6h.6c0,0,0-.6,0-.6h.6c0,0,1.2.3,1.2.3v-.6h0s0,0,0,0h.5c0,0,0-.6,0-.6v-.7h.6v3h.6v.8h.6c0,0,1.2.3,1.2.3v.7h.6c0,.1,0,.1,0,.1v1.4h.6c0,.1.3.1.3.1v.4h.3v.4h.3s.3,0,.3,0h0s0,0,0,0v1.4h.6v.8h.3v.8h-.3s0,.7,0,.7h.3v1.5h-.3c0,0,0,.7,0,.7v2.1h-.6c0,0,0,.6,0,.6v2.1h-.3s0,.3,0,.3v8.2h-.3s0,.7,0,.7h.3v1.8h.2c0,.1,0,.1,0,.1v1h.9v.5h.3v.4h.6v.8h.3v.8h-.3s0,.7,0,.7v1.4h.6v.8h.6c0,.1.6.2.6.2v4.3h-.6c0-.1,0,.6,0,.6v.7h-.6c0,0,0,.3,0,.3h-.3s-.3,0-.3,0h-.3c0,0-.3,0-.3,0h-.3s-.3,0-.3,0h-.3s-.3,0-.3,0v.4h-.6c0,0,0,.6,0,.6v.7h.5v.2h.1v.6h.6v1.5h.3v1.5h-.3s0,.7,0,.7h.6v1.5h.3v.8h.3v1.5h.6v.8l1.2.2h.5v.2h.2v.6h.6v.8l2.5.4v-.7h.6c0,0,.6.2.6.2h.6c0,0,.6.2.6.2v-.4h.3s0-.3,0-.3h.9v1.6h.6v.8h.3v.8h-.3s0,.7,0,.7h-.6c0,0,0,.6,0,.6v.3h-.3s0,.3,0,.3v.7h.3s.3,0,.3,0v.4h.3v.4h.6c0,0,.6.2.6.2v.7h.6c0,0,.8.2.8.2v.2h.2v.2h.3v.4h.6c0,.1.5.2.5.2v.2h.2v.6l1.2.2,1.2.2v-.4h.3s0-.3,0-.3h.3s0-.7,0-.7h.6c0,0,0-1.7,0-1.7h.3s0-.3,0-.3h.3s0-.7,0-.7v-.5h.2s0-.2,0-.2h.5c0,0,0-.6,0-.6h.6v.8h.6v1.5h-.3s0,.3,0,.3v1.1h-.3s0,.7,0,.7v.7h-.3s0,.3,0,.3v.4h-.3s0,1.4,0,1.4h-.6c0,0,0,.6,0,.6h.3v.4h.3v.4l1.2.2v-.5h.2s0-.2,0-.2h.5c0,0,0-.6,0-.6v-.4h.3s0-.3,0-.3h.3s0-.7,0-.7v-.7h.6c0,0,0-.6,0-.6v-.7h.6c0,0,0-.6,0-.6l1.3.2h.6c0,.1,0,.1,0,.1v.3h.3s.3,0,.3,0v.4h.5v.2h.1v.6h.6v.2h0v1.4h.3v1.1h.3v1.1h.3v1.1h.3v4h.3v.4h.3v.4h.3v.4h.3v.4l1.2.2v-.4h.3s.3,0,.3,0v.4h.6c0,0,.6.2.6.2v-.4h.3s.3,0,.3,0h.3s.3,0,.3,0v.4h.6c0,0,1.2.3,1.2.3v.7h.3v.4h.3v.4h.6v.8h.3v.8h-.3s0,.7,0,.7h.6v.6h-.2s0,.2,0,.2h-.5c0,0,0,.6,0,.6h.3v.8h-.3s0,1.4,0,1.4v.7h.6c0,0,.3.1.3.1h0s0,0,0,0v.4h.3s.3,0,.3,0v-.3h.3s.6.1.6.1v-.7h.6c0,0,0-.6,0-.6h.6c0,0,0-.3,0-.3h.3s0-.3,0-.3h.9c0,.1,0-.6,0-.6h.6c0,0,.6.2.6.2v-.7l1.3.2v-.7h0s0,0,0,0h.6c0,0,.6.2.6.2v-.3h.3s0-.3,0-.3h.9c0,.1,0-1.3,0-1.3v-.4h.3s0-.3,0-.3h.3s0-.3,0-.3h.3s0-.3,0-.3h.3s0-1.4,0-1.4h.6c0,0,0-.6,0-.6v-.6h0s0,0,0,0h.5c0,0,0-1.3,0-1.3v-.7h.6c0,0,.6.2.6.2v-.3h.3s0-.3,0-.3h.3s0-.3,0-.3h.3s0-.3,0-.3h-.2c0-.1,0-.1,0-.1v-2h.6c0,0,.6.2.6.2v-.4h.3s0-.3,0-.3h.3s.6.1.6.1v-.7h.6c0,0,.6.2.6.2v.7h.6v.8h.6c0,0,0-.6,0-.6h.6c0,0,0-.6,0-.6h-.5v-.2h0v-.6h-.6v-.8h-.6v-.8h-.6c0,0-.3-.1-.3-.1v-.4h-.3v-.4h-.6c0-.1,0-.1,0-.1v-.7h-.6v-.8h-.6c0,0-.3-.1-.3-.1v-.4h-.3v-.4h-.5v-.2h-.2v-.6h-.6v-.8h-.6v-.8h-.9v-.5h-.3v-.4h-.5v-.2h-.1v-.6h-.6c0,0-.6-.2-.6-.2v-.7h-.3v-.4h-.3v-1.1h0s.6,0,.6,0h.6c0,.1,0-.6,0-.6h0s1.2.1,1.2.1l2.5.4v-.7h.6c0,0,0-.6,0-.6v-2.9h.6c0,0,0-.6,0-.6h.6v.8h.6c0,.1.3.2.3.2v.3h.3v.4h.6v.2h0v.6h.6v.8h.6c0,0,.3.1.3.1v.3h.3v.4h.6c0,.1,0,.1,0,.1v.7h.6v.8h.6c0,0,.3.1.3.1v.4h.3v.4h.6v.8l1.2.2v-.7h.6c0,0,0-.6,0-.6h-.6c0,0-.3-.1-.3-.1v-.4h-.3v-.4h-.5v-.2h0v-.6h-.6v-.8h-.6v-.8l-1.2-.2h0s0,0,0,0v-.7h-.6v-.8h-.6c0,0-.3-.1-.3-.1v-.4h-.3v-.4h-.5v-.2h-.1v-.6h-.6c0-.1,0-.1,0-.1v-1.1h.3s0-.3,0-.3h.3v.8h.6c0,0,.3.2.3.2v.3h.3v.4h.5v.2h.2v.6h.6v.8h.6v.8h.6c0,0,.3.1.3.1v.4h.3v.4h.5v.2h0v.6h.6v.8h.6c0,0,.3.1.3.1h0s0,0,0,0v.3h.3v.4h.3v.4h.3v.4l1.3.2v-.7h.6c0,.1,0-.6,0-.6v-.7h-.6v-.8h-.6v-.8h-.6c0-.1-.3-.1-.3-.1v-.4h-.3v-.4h-.5v-.2h-.2v-.6h-.6v-.8h-.6v-.8h-.6c0-.1-.3-.1-.3-.1v-.4h-.3v-.4h-.5v-.2h-.2v-.6h-.6v-.8h-.6v-1.4h0s0,0,0,0h.5c0,0,.6.2.6.2v.7h.6c0,0,.3.1.3.1v.4h.3v.4h.6v.8h.6v.8h.6c0,0,.3.1.3.1v.4h.3v.4h.5v.2h0v.6h.6v.8h.6c0,0,.3.1.3.1v.4h.3v.4h.5v.2h.2v.6h.6v.8h.6v.8h.6c0,.1.3.1.3.1v.4h.3v.4h.6v.8h.6v.8h.9v.5h.3v.4h.6v.2h0v.3h.3s0-.3,0-.3h.3s0-.3,0-.3h.3s0-.3,0-.3h-.3v-.8h-.6v-.8h-.6c0,0-.3-.1-.3-.1v-.4h-.3v-.4h-.6v-.8h-.6v-.8h-.6c0,0-.3-.1-.3-.1v-.4h-.3v-.4h-.5v-.2h0v-.6h-.6v-.8h-.6c0,0-.3-.1-.3-.1v-.4h-.3v-.4h-.5v-.2h-.1v-.6h-.6v-.8h-.6v-.8h-.9v-.5h-.3v-.4h-.6v-.2h0v-.6h-.6v-.8h-.6v-1.5h.6c0,0,0-.6,0-.6h.6c0,0,0-.6,0-.6v-.4h.3c0,0,0-.3,0-.3h.3c0,0,0-.3,0-.3h.3c0,0,0-.3,0-.3h.3c0,0,0-.3,0-.3h.3s0-.3,0-.3h.3s0-.3,0-.3h.3s0-.3,0-.3h.3s0-.5,0-.5h.2s0-.2,0-.2h.5c0,0,0-.5,0-.5h.1s0-.2,0-.2h.5c0,0,0-.6,0-.6h0s0,0,0,0h.6c0,0,.3.1.3.1v.4h.3v1.1h.6v.8h.5v.2h0v.6h.3v.4h.3v1.1h.6v.8h.5v.2h.2v1.3h.6v.8h.6v.8h.3v.4h.3v1.1h.6v.8h.6c0,.1,0,.1,0,.1v.7h.3v.4h.3v1.1h.6v.8h.5v.2h.2v.6h.3v.4h.3v1.1h.6v.8h.5v.2h.2v.6h.6c0,0,0-.6,0-.6h.6c0,0,0-.3,0-.3h.3s0-.3,0-.3h.3s.6.1.6.1v-.7h.2s0-.2,0-.2h-.2v-1.3h-.6v-.8h-.6v-.8h-.3v-.4h-.3v-1.1h-.6v-.8h-.6v-.8h-.3v-.4h-.3v-1.1h-.6v-.8h.6c0,0,.6.2.6.2h.6c0,0,.6.2.6.2h.5v.2h0v.6h.6c0,0,1.3.3,1.3.3l2.5.4,1.9.3v.7h.6c0,0,.6.2.6.2h.6c0,0,.6.2.6.2h.6c0,0,.6.2.6.2h.6c0,0,.3.1.3.1v.4h.3v.4h.6c0,0,1.2.3,1.2.3v.7h.6c0,0,.6.2.6.2h.6c0,.1.6.2.6.2v.7l1.2.2h.6c0,0,.5.2.5.2h0c0,0,0,0,0,0v.6h.6c0,0,.6.2.6.2h.6c0,0,.5.2.5.2v.2h.2v.6l1.2.2h.9v.5h.3v.4h.6c0,0,.6.2.6.2h.6c0,.1.3.2.3.2v.3h.3v.4l1.2.2h.6v.8h.6c0,0,.6.2.6.2h.6c0,0,.6.2.6.2v.7h.6c0,0,1.2.3,1.2.3h.6v.8h.6c0,0,0-.6,0-.6h.6c0,0,0-.6,0-.6v-.7h.6c0,0,0-1.9,0-1.9h.2s0-.2,0-.2h.5c0,0,0-.6,0-.6h.6c0,0,0-1.3,0-1.3v-.5h.2s0-.2,0-.2h.5c0,0,0-.6,0-.6v-.7h0s.6,0,.6,0v-1.4h.6c0,0,.6.2.6.2h.6c0,0,.6.2.6.2v1.4h-.6c0,0,0,.6,0,.6v.7h-.6c0,0,0,.6,0,.6v.7h-.6c0-.1,0,.6,0,.6v.7h-.6c0,0,0,.6,0,.6v1.2h0s0,0,0,0h0v.2h.6c0,.1,0,.1,0,.1v.7h.6c0,0,0-.3,0-.3h.3s0-.3,0-.3h.9c0,.1,2.5.5,2.5.5l1.3.2h.6c0,0,0-.6,0-.6h.6c0,0,.6.2.6.2v-.5h.1s0-.2,0-.2h.5c0,0,0-1.3,0-1.3h.6c0,0,0-.6,0-.6v-.6h0s0,0,0,0h.6c0,0,0-.6,0-.6h.6c0,.1.6.2.6.2h.6c0,0,.6.2.6.2h.6c0,0,.6.2.6.2v.7l1.3.2v-.7h.6c0,0,0-.6,0-.6v-.4h.3s0-.3,0-.3h.3s0-.7,0-.7h.6c0,.1,0-.6,0-.6v-.3h.3s0-.3,0-.3h.3s0-.7,0-.7h.6c0,0,0-.6,0-.6h.6c0,0,0-1.3,0-1.3h.6c0,0,0-.6,0-.6v-.3h.3s0-.3,0-.3h.3s.6.1.6.1h0c0,0,0,0,0,0v.7h.6v.8l1.2.2v.7h.6c0,0,.5.2.5.2h0c0,0,0,.1,0,.1v.6h.3v.4h.3v1.1h.6v.8h.6v.8h.6c0,.1,0,.1,0,.1v.7h.3v.4h.3v1.1h.6v.8l1.2.2,1.2.2,1.2.2v-.7h.6c0,0,0-.6,0-.6h.6c0,0,0-.3,0-.3h.3s0-.3,0-.3h.3s0-.3,0-.3h.3s0-.3,0-.3h.3s0-.6,0-.6h0s0,0,0,0h.6c0,0,0-.6,0-.6h.6c0,0,0-1.3,0-1.3h.6c0,0,0-.6,0-.6v-.4h.3s0-.3,0-.3h.3s0-.7,0-.7h.3s0-.3,0-.3v-.4h.3s0-.7,0-.7v-.3h.3s0-.3,0-.3h.3s0-1.3,0-1.3h0s0,0,0,0h.5c0,0,0-.6,0-.6v-.7h.6c0,0,0-1.3,0-1.3h-.6v-3h-.6v-1.5h-.3v-.4h-.3v-1.8h-.6v-.8h-.6v-1.2h.3s0-.3,0-.3h.3s0-.7,0-.7h-.6c0,0,0,.4,0,.4h-.2s0,.2,0,.2h-.5c0,0,0,.6,0,.6h0s0,0,0,0h-.6c0,0-.3-.1-.3-.1v-.4h-.3v-.4h-.6v-.8h-.6c0,0-.6-.2-.6-.2v-2.1h-.6c0,0,0,.6,0,.6h-.6c0,0-.6-.2-.6-.2h-.3v-.4h-.3v-1.8h-.6c0-.1,0,.6,0,.6h-.6v-1.9h.3s.3,0,.3,0v-.4h.6c0,0,0-.6,0-.6v-1.4h-.6v-1.5h.6c0,.1,0-.6,0-.6v-.7h.6c0,0,0-.6,0-.6v-.7h.6c0,.1,0-.6,0-.6h-.3v-.4h-.3v-.4h-.6c0,0,0,.6,0,.6v.7h0s-.6,0-.6,0v1.4h-.6c0,0,0,.6,0,.6v.7h-.6c0-.1,0,.6,0,.6l-1.3-.2v-2.7h.2s0-.2,0-.2h.5c0,0,0-.6,0-.6v-.5h.2s0-.2,0-.2h.5c0,0,0-.6,0-.6v-.7h-.6c0,0,0,.6,0,.6h-.6c0,0,0,.6,0,.6v.7h-.6c0,0,0,.6,0,.6v.7h-.6c0-.1,0,.6,0,.6v.7h-.6c0,0,0,.6,0,.6v1.1h-.3c0,0,0,.3,0,.3h-.3c0,0,0,1.2,0,1.2h-.2s0,.1,0,.1h-.5c0,0,0,.7,0,.7v.7h0s-.6,0-.6,0v.7h-.6c0,0-.6-.2-.6-.2v-1.1h.3c0,0,0-.3,0-.3h.3c0,0,0-.7,0-.7h.6c0,.1,0-1.3,0-1.3h.6c0,0,0-.6,0-.6v-.7h.6c0,.1,0-1.3,0-1.3h.6c0,0,0-.6,0-.6v-.7h.6c0,0,0-1.3,0-1.3h.6c0,.1,0-.6,0-.6v-.7h.6c0,0,0-1.3,0-1.3h.6c0,0,0-.6,0-.6v-.7h.6c0,0,0-1.3,0-1.3h0s.3,0,.3,0v-.4h-.3v-.4h-.6v-.8h-.6v-.8h-.6c0,0-.6-.2-.6-.2v.4h-.3s0,.3,0,.3h-.3s0,.7,0,.7v.4h-.3s0,.3,0,.3h-.3s0,1,0,1h-.3c0,0,0,.3,0,.3h-.3c0,0,0,.7,0,.7v.4h-.3s0,.3,0,.3h-.3s0,1,0,1h-.3s0,.3,0,.3h-.3s0,.7,0,.7v.4h-.3c0,0,0,.3,0,.3h-.3c0,0,0,.7,0,.7h-.6c0,0,0,.6,0,.6v.7h-.6c0,0,0,.6,0,.6v.7h-.6c0-.1,0,.6,0,.6v.7h-.6c0,0,0,.6,0,.6l-1.1-.2v-.2h-.2v-.6h-.6v-2.2h.6c0,0,0-1.3,0-1.3h.6c0,.1,0-.6,0-.6v-.7h.6c0,0,0-1.2,0-1.2h.2s0-.2,0-.2h.5c0,0,0-.6,0-.6v-.4h.3c0,0,0-.3,0-.3h.3c0,0,0-1,0-1h.3c0,0,0-.3,0-.3h.3s0-.7,0-.7v-.4h.3s0-.3,0-.3h.3s0-1,0-1h.3s0-.3,0-.3h.3s0-.7,0-.7h.6c0,0,0-.6,0-.6v-.7h.6c0,0,0-.6,0-.6h-.6c0-.1-.3-.1-.3-.1v-.4h-.3v-.4h-.6v-.8h-.6v-.8h-.6c0,0-.5-.2-.5-.2h0c0,0,0-.1,0-.1v-.6h-.6c0,0,0,.6,0,.6h-.6c0,0,0,.6,0,.6v.7h-.6c0,0,0,.6,0,.6v.7h-.6c0-.1,0,.6,0,.6v.7h-.6c0,0,0,.6,0,.6v.7h-.6c0-.1,0,.6,0,.6h-.6c0,0,0,2,0,2h0s0,0,0,0h-.5c0,0,0,.6,0,.6h-.6c0-.1,0,1.3,0,1.3v.5h-.2s0,.1,0,.1h-.5c0,0,0,.6,0,.6h-.6c0,0,0,1.3,0,1.3h-.3v-.4h-.3v-1.8h-.6v-1.5h.6c0,0,0-.6,0-.6v-1.1h.3s0-.3,0-.3h.3s0-1,0-1h.3c0,0,0-.3,0-.3h.3c0,0,0-.7,0-.7v-.4h.3s0-.3,0-.3h.3s0-1.2,0-1.2h.2s0-.1,0-.1h.5c0,0,0-.6,0-.6v-.6h0s0,0,0,0h.6c0,0,0-1.3,0-1.3h0s.6,0,.6,0v-.7h-.6c0-.1,0-.1,0-.1v-.7l-1.3-.2h-.6c0-.1,0,.6,0,.6h-.6c0,0,0,.6,0,.6v.7h-.6c0,0,0,.6,0,.6v.7h-.6c0-.1,0,.6,0,.6v1.1h-.3c0,0,0,.3,0,.3h-.3c0,0,0,.7,0,.7v.4h-.3s0,.3,0,.3h-.3s0,1,0,1h-.3s0,.3,0,.3h-.3s0,.7,0,.7v.4h-.3c0,0,0,.3,0,.3h-.3c0,0,0,.7,0,.7h-.6c0,0-.5-.2-.5-.2v-.2h-.2v-.6h-.6v-.8h.6c0,0,0-.6,0-.6v-.7h.6c0,.1,0-.6,0-.6v-.7h.6c0,0,0-.6,0-.6v-.7h.6c0,.1,0-.6,0-.6v-.7h.6c0,0,0-.6,0-.6v-1.1h.3s0-.3,0-.3h.3s0-.7,0-.7v-.4h.3s0-.3,0-.3h.3s0-1,0-1h.3s0-.3,0-.3h.3c0,0,0-.7,0-.7h-.6v-.8h-.6c0,0,0,.6,0,.6h-.6c0,0,0,.6,0,.6v.7h-.6c0-.1,0,.6,0,.6v.7h-.6c0,0,0,.6,0,.6v.7h0s-.6,0-.6,0v1.3h0s0,0,0,0h-.5c0,0,0,.6,0,.6v.5h-.2s0,.2,0,.2h-.5c0,0,0,.6,0,.6h-.6c0,0,0,.6,0,.6h-.6c0,0-.6-.2-.6-.2h-.6v-.8h-.6c0-.1-.6-.2-.6-.2v-1.4h.6c0,0,0-1.3,0-1.3h.6c0,.1,0-.6,0-.6v-.7h.6c0,0,0-.6,0-.6h-.3v-.4h-.3v-.4h-.6c0,0-.6-.2-.6-.2v-.7h-.6c0,0-.6-.2-.6-.2h-.6c0,0-.6-.2-.6-.2h-.6c0-.1-.6-.2-.6-.2v.4h-.3s0,.3,0,.3h-.3s0,.7,0,.7h-.6c0,0-.6-.2-.6-.2v-2.1h.6c0,0,0-.6,0-.6v-1.4h.6c0,.1,0-.6,0-.6v-.7h.6c0,0,0-.6,0-.6v-.7h.6c0,0,0-.6,0-.6v-1.1h.3s0-.3,0-.3h.3s0-.7,0-.7h-.5v-.2h0v-.3h-.3s0,.3,0,.3h-.3s0,.7,0,.7v.4h-.3c0,0,0,.3,0,.3h-.3c0,0-.6-.1-.6-.1h-.6v-1.5h.6c0,.1,0-.6,0-.6v-1.4h-.6c0,0-1.2-.3-1.2-.3h-.6c0,0,0,.6,0,.6h0s0,0,0,0h-.6c0,0-.6-.2-.6-.2h-.6c0,0-.6-.2-.6-.2v-1.4h-.6c0,0-.6-.2-.6-.2h-.6c0,0-.6-.2-.6-.2h-.6c0,0-.6-.2-.6-.2h-.6c0-.1-.5-.2-.5-.2v-.2h-.2s0,0,0,0h0s0,0,0,0h-.5c0,0,0,.6,0,.6h-.6c0-.1,0,.6,0,.6v.7h-.6c0,0,0,1.3,0,1.3v.4h-.3s0,.3,0,.3h-.3s-.6-.1-.6-.1v-.7l-1.2-.2-1.2-.2h-.6c0-.1,0,.4,0,.4h-.2s0,.1,0,.1h-.5c0,0-.6-.2-.6-.2v.7h-.6c0,0-1.2-.3-1.2-.3v.7h-.6c0,0-.6-.2-.6-.2v.7l-1.2-.2v.7h-.6c0,0,0,.3,0,.3h-.3s0,.3,0,.3h-.3s-1.2-.2-1.2-.2v.7h-.6c0-.1,0,.6,0,.6h-.6c0-.1,0,.3,0,.3h-.3c0,0,0,.3,0,.3v.4h.3v1.8h-.6c0-.1,0,.4,0,.4h-.2s0,.1,0,.1h-.5c0,0,0,.6,0,.6v.4h-.3c0,0,0,.3,0,.3h-.3c0,0,0,.7,0,.7h-.6c0,0,0,.3,0,.3h-.3s-.3-.1-.3-.1h-.3v-.4h-.3s-.8-.2-.8-.2v-.2h-.2v-.2h-.3v-1.1h.3c0,0,0-.3,0-.3v-.5h.2s0-.2,0-.2h.2s0-.3,0-.3v-.3h0s0,0,0,0h.2s0-.3,0-.3v-.4h.3s0-.3,0-.3v-.4h.3s0-.3,0-.3v-.7h-.3s0,.1,0,.1h-.2s0,.2,0,.2h-.2s0,.3,0,.3v.3h0s-.3,0-.3,0v.7h-.3s0,.3,0,.3v.4h-.3s0,.3,0,.3v.4h-.3c0,0-.3,0-.3,0v.5h-.2s0,.2,0,.2h-.2s0,.3,0,.3v.4h-.3s-.3,0-.3,0h0s0,0,0,0v-.3h-.3c0,0-.3-.1-.3-.1v.5h-.2s0,.1,0,.1h-.1s0,.5,0,.5h-.2s0,.2,0,.2h-.2s0,.3,0,.3v.2h-.1s0,.2,0,.2h-.2s0,.5,0,.5h-.2s0,.1,0,.1h-.1s0,.3,0,.3v.2h-.2s0,.1,0,.1h-.2s-.6-.1-.6-.1v-.4h-.3s-.3,0-.3,0v-.7h.3s0-.3,0-.3v-.4h.3s0-.3,0-.3v-.4h.3c0,0,0-.3,0-.3v-.4h.3s0-.3,0-.3v-.4h.3s0-.3,0-.3v-.5h.1s0-.1,0-.1h.2s0-.3,0-.3h-.2v-.2h-.1s-.2,0-.2,0v.2h-.2s0,.3,0,.3h-.3s0,.3,0,.3v.4h-.3s0,.7,0,.7h-.3c0,0,0,.3,0,.3v.4h-.3s0,.7,0,.7h-.3s0,.3,0,.3v.5h-.2s0,.2,0,.2h-.1s0,.3,0,.3h-.6v-.5h.3s0-.3,0-.3v-.5h.2s0-.2,0-.2h.2s0-.5,0-.5h.1s0-.1,0-.1h.2s0-.3,0-.3v-.3h0s0,0,0,0h.2s0-.3,0-.3v-.4h-.3s0,.3,0,.3h-.3c0,0-.3,0-.3,0h-.3v-.4h-.6c0,0-.3-.1-.3-.1v-.4h-.3s-.3,0-.3,0h-.3s-.3,0-.3,0v-.4h-.3c0,0-.6-.1-.6-.1v.5h-.2s0,.2,0,.2h-.2s0,.3,0,.3h-.1v-.2h-.2v-.2h-.6v-.5h-.3s-.3,0-.3,0h-.3s-.3-.1-.3-.1h-.3s-.3,0-.3,0h-.2v-.2h-.2v-.2h-.3s-.5-.1-.5-.1v-.2h-.2v-.4h.2s0-.2,0-.2h.2s0-.1,0-.1h.1s0-.2,0-.2h.2s0-.3,0-.3h0s0,0,0,0h.3c0,0,0-.3,0-.3v-.4h-.3s-.6-.1-.6-.1h-.6c0,0,0,.3,0,.3h-.3s-.3,0-.3,0h-.3c0,0-.3-.1-.3-.1v.4h-.6c0,0-.6-.2-.6-.2v.4h-.3s-.3,0-.3,0h-.3c0,0-.3-.1-.3-.1v.4h-.6v-1.5h-.3v-1.1h-.3s-.3-.1-.3-.1v.3h0s-.3,0-.3,0l-1.2-.2v.4h-.3c0,0-.3,0-.3,0h-.3v-1.3h.1s0-.2,0-.2h.2s0-.3,0-.3h.3s0-.3,0-.3v-1.1h-.3v-2.2h-.6v-.4h-.2v-.2h-.2v-1.6h.3s.3,0,.3,0v-.4h.3s.3,0,.3,0h.3s.3.1.3.1h.3s0-.3,0-.3h.3s0-.3,0-.3v-1.6h.1s0-.1,0-.1h.2s.6.1.6.1h.3c0,0,0-.3,0-.3h.3c0,0,0-.1,0-.1h.2s0-.2,0-.2h.2s0-.3,0-.3v-.4h-.3s-.6-.1-.6-.1h-.6c0-.1,0,.3,0,.3h-.3c0,0-.3-.1-.3-.1h-.3s-.3,0-.3,0v.4h-.6c0-.1-.6-.2-.6-.2v.4h-.3c0,0-.3-.1-.3-.1h-.3c0,0,0,.1,0,.1h-.2s0,.2,0,.2h-.2s-.6-.1-.6-.1h-.3s0,.1,0,.1h-.1s0,.2,0,.2h-.2s-.3,0-.3,0h-.3s-.3,0-.3,0h-.3v-.4h-.3v-.8h.3s.3.1.3.1v-.2h.2s0-.2,0-.2h.1s.3,0,.3,0v-.4h-.3v-.8h.3s0-.3,0-.3h0s.3,0,.3,0h.3s.3,0,.3,0h.3c0,0,0-.2,0-.2h0s0,0,0,0h.2s.6.1.6.1h.3s0-.1,0-.1h.2s0-.2,0-.2h.2s.3,0,.3,0h.3s.3.1.3.1v-.2h.2s0-.1,0-.1h.2s.6.1.6.1v-1.1h-.1v-.2h-.2s0,.1,0,.1h0s0,0,0,0h-.3s-.3,0-.3,0h-.3s-.3,0-.3,0v.2h-.2s0,.2,0,.2h-.1s-.6-.1-.6-.1h-.3c0,0,0,.1,0,.1h-.2s0,.2,0,.2h-.2s-.3,0-.3,0h-.3c0,0-.3-.1-.3-.1h-.3s0,.3,0,.3h-.6c0,0-.6-.2-.6-.2v.4h-.3s-.3,0-.3,0v-1.4h.3s.3,0,.3,0v-.4h.6c0,.1.6.2.6.2v-.4h.3s.3,0,.3,0h.3s.3.1.3.1v-.3h0s0,0,0,0h.5c0,0,.6.2.6.2v-.2h.1s0-.2,0-.2h.2s.3,0,.3,0v-.5h0c0-.1,0-.1,0-.1h0s.3,0,.3,0h.3s0-.3,0-.3h0s0,0,0,0h.6c0,0,0-.2,0-.2h0s.3,0,.3,0h.3s0-.3,0-.3h.6c0,.1,0-.3,0-.3h.3c0,0,.3,0,.3,0v-.4h.6c0,0,0-.3,0-.3h.3c0,0,.3.1.3.1v-.4h.6c0,.1.3.1.3.1v.4h.2v.2h.2v.9h.6c0,0,.3.1.3.1v.4h.3v.4h.6v.8h.6c0,.1.3.1.3.1v.4h.3v.4h.6v.8h.6c0,.1.3.1.3.1v.4h.3v.4h.6v.8h.6c0,0,.3.1.3.1v.3h.3v.4h.6v.8h.6c0,0,.3.1.3.1h0s0,0,0,0v.3h.3v.4h.6c0,.1,0,.1,0,.1v.7h.6c0,0,.2.1.2.1h0c0,0,0,0,0,0v.3h.3v.4h.5v.2h.1v.6h.6c0,.1.1.1.1.1v.2h.2v.2h.3v.4l1.3.2v-.4h.3s.3,0,.3,0h.3c0,0,0-.3,0-.3h0s.3,0,.3,0h.6c0,0,.6.2.6.2v-.4h.3c0,0,.3,0,.3,0h.3c0,0,.3.1.3.1v-.2h.1s0-.1,0-.1l1.1.2h.6c0,0,0-.3,0-.3h.3s.3,0,.3,0h.3s.3.1.3.1v-.4h.6c0,0,.6.2.6.2h.6c0,0,0-.3,0-.3h.3s.3,0,.3,0h.3s0-.3,0-.3h.3s.6.1.6.1h.6c0,.1,0-.3,0-.3h.3c0,0,.3,0,.3,0h.3s.3,0,.3,0v-.4h-.3c0,0-.3,0-.3,0h-.3c0,0-.3-.1-.3-.1h-.6c0,0-.6-.2-.6-.2h-.6c0,0,0,.3,0,.3h-.3s-.3,0-.3,0h-.3s-.3,0-.3,0h-.3s-.3,0-.3,0h-.3s-.3,0-.3,0h-.3c0,0-.3-.1-.3-.1v.4h-.6c0,0-.6-.2-.6-.2l-1.2-.2-1.3-.2v.4h-.3s-.3,0-.3,0h-.3c0,0-.3-.1-.3-.1h-.3s-.3,0-.3,0h-.3c0,0-.3-.1-.3-.1h-.3s-.3,0-.3,0h-.3s-.3-.1-.3-.1v-.4l-1.2-.2h-.5v-.2h-.1v-.2h-.3c0,0-.3-.1-.3-.1h-.3s-.3,0-.3,0v-.4h-.6c0,0-.3-.1-.3-.1h0s0,0,0,0v-.3h-.3v-.4h-.5v-.2h-.2v-.6h-.6v-.8h-.6c0,0-.3-.1-.3-.1v-.4h-.3v-.4h-.5v-.2h0v-.6h-.6v-.8h-.6c0-.1-.3-.1-.3-.1v-.4h-.3v-.4h-.5v-.2h0v-.6h-.6v-.8h-.6c0,0-.3-.1-.3-.1v-.4h-.3s-.2,0-.2,0v-.2h-.2v-.2h-.3c0,0,0,0,0,0v-.3h-.2v-.2h-.2v-.9h-.3v-.8h-.3v-.8h-.2v-.2h-.1v-.6h-.2v-.2h-.2v-.2h-.3v-.4h-.6v-.5h-.3s-.3-.1-.3-.1v-.4h-.3v-.8h-.1v-.2h-.2v-2.7h-.3v-2.2h-.3c0,0,0,0,0,0v-2.5h-.3v-.4h.8v.3h.2v.2h.3s0-.3,0-.3v-1.1h-.3v-1.1h-.2v-.2h-.1v-1.3h-.3c0,0,0,0,0,0v-1h-.3c0,0,0,0,0,0v-1h-.3v-1.1h-.3v-1.1h-.3v-1.1h-.2v-.2h-.1v-1.3h-.3v-1.1h-.2v-.2h-.2v-1.3h-.3v-1.1h-.3v-1.1h-.3s0,0,0,0v-1.1h-.1v-.2h-.2v-.4h.2s0-.2,0-.2h.1s.3,0,.3,0h.3v.8h.2c0,.1,0,.1,0,.1v1h.2c0,.1,0,.1,0,.1v1h.2c0,.1,0,.1,0,.1v1h.2c0,.1,0,.1,0,.1v1h.2c0,.1,0,.1,0,.1v1h.2v.2h.2v1.3h.3v1.1h.3v1.1h.2c0,.1,0,.1,0,.1v1h.1v.2h.2v.9h.2v.2h.1v.9h.2v.2h.2v.9h.1v.2h.2v1.3h.3v.8h.2v.2h.2v.6h.3v.4h.3v.4h.2c0,.1,0,.1,0,.1v2.1l1.2.2h.6c0,.1.3.2.3.2v-.3h0s0,0,0,0h.3c0,0,.3,0,.3,0h.3c0,0,.3.1.3.1h.3s0-.3,0-.3h.6c0,0,.6.2.6.2h.3s0-.1,0-.1h.2s0-.2,0-.2h.1s.3,0,.3,0h.3s.3.1.3.1h.3s.3,0,.3,0v-.3h0s0,0,0,0h.2s1.2.2,1.2.2h.3s0-.2,0-.2h0s0,0,0,0h.2s.3,0,.3,0h.3s.3.1.3.1h.3s.3,0,.3,0v-.3h0s0,0,0,0h.3s.6.1.6.1h.6c0,0,.3.1.3.1v-.3h0s0,0,0,0h.3s.3,0,.3,0h.3v.4h.3v1.8h.3c0,0,0,0,0,0v.3h-.6c0-.1,0,.3,0,.3h-.3s-.3,0-.3,0h-.3s-.3-.1-.3-.1v.2h-.1s0,.2,0,.2h-.5c0,0-.6-.2-.6-.2h-.6c0,0-.6-.2-.6-.2v.4h-.3c0,0-.3-.1-.3-.1v.3h0s0,0,0,0h-.2s0,.3,0,.3v.4h-.3c0,0,0,.7,0,.7v1h0s-.3,0-.3,0v1.1h-.3c0,0,0,.7,0,.7v.7h-.3s0,.3,0,.3v1.1h-.3s0,.7,0,.7v.7h.3v1.5h.3v.8h.6c0,.1.5.2.5.2v.2h.2v.6h.6c0,0,.3.1.3.1v.4h.3v.4h.6c0,0,1.2.3,1.2.3v-.5h.2s0-.2,0-.2h.5c0,0,0-.3,0-.3h.3s.3,0,.3,0h.3s.3,0,.3,0h.3s.3,0,.3,0h.3s.3,0,.3,0h.3s.3,0,.3,0h.3c0,0,.3,0,.3,0h.3s0-.2,0-.2h0s0,0,0,0h.2s1.3.2,1.3.2h.6c0,0,0-.3,0-.3h.3s.3,0,.3,0h.3c0,0,.3.1.3.1h.3s.3,0,.3,0h.3c0,0,.3,0,.3,0v-1h0s0,0,0,0h.5v1.9h-.3s0,.3,0,.3v.4h.3s.3.1.3.1v-.4h.3c0,0,0-.7,0-.7v-.7h.6c0,0,.6.2.6.2v-.7h.6c0,.1,0-.6,0-.6h.6c0,.1,0-.6,0-.6v-.7h.6c0,0,0-.6,0-.6h.6v.4h.3c0,0,.3,0,.3,0v.4h.5v.2h.2v.6h.6c0,0,.2.1.2.1h0c0,0,0,.1,0,.1v.3h.3s0-.3,0-.3h.3s0-.3,0-.3h-.3v-.4h-.6v-.8h-.6c0,0-.3-.1-.3-.1v-.4h-.3v-.4h-.6v-.5h.3s.3,0,.3,0v-.4h.6c0,0,0-.6,0-.6h.5v.2h.2v.6h.9v.2h0v.3h.3s.3,0,.3,0v-.7h-.3c0,0,0-.1,0-.1v-.7h.3s.3.1.3.1h.3s0-.3,0-.3h.3c0,0,0-.3,0-.3h.3c0,0,0-.1,0-.1h.1s0-.2,0-.2h.2s0-.7,0-.7h-.3v-.4h-.3v-.4h.6c0,0,0-.4,0-.4h.2s0-.1,0-.1h.5c0,0,0-.3,0-.3h.3s0-.1,0-.1h.1s0-.2,0-.2h.2s.6.1.6.1h.3v2.2h.3c0,0,.6.1.6.1v-3.6h-.3v-2.2h.3s0-.3,0-.3h.3s.3.1.3.1h.3s0-.1,0-.1h.2s0-.2,0-.2h.2v.7h.3v.4h.3v4.7h.2v.2h.2v.2h.3c0,0,.3,0,.3,0h.3c0,0,0-.1,0-.1h.2s0-.2,0-.2h.5c0,0,.3.1.3.1v-5h-.3v-1.1h.3s.3,0,.3,0v-.2h.2s0-.1,0-.1h.5c0,0,.9.2.9.2v2.5h.3v1.1h.6v.8h.6v.8h0s-.6,0-.6,0v.7h-.6c0,0,0,.6,0,.6h.3v.4h.3v.4h.6c0,.1,0-.4,0-.4h.2s0-.1,0-.1h.5c0,0,0-.3,0-.3h.3s0-.3,0-.3h.2v.2h.2v.6h.6v.8h.6v.8h.6v.8h.6c0,0,.3.1.3.1h0s0,0,0,0v.3h.3v.4h.6c0,0,0-.4,0-.4h.2s0-.2,0-.2h.5c0,0,0-.3,0-.3h.3s0-.3,0-.3h.3s0-.3,0-.3h.3s0-.3,0-.3h0s1.6.2,1.6.2v.7h.6c0,.1.2.1.2.1h0c0,0,0,.1,0,.1v.3h.3v.4h.3v.4h.3v.4h.6c0,.1.6.2.6.2v-.3h.3s0-.1,0-.1h.1s0-.2,0-.2h.8c0,.1,0-1.3,0-1.3h-.6c0-.1,0-.1,0-.1v-.7h-.6v-.8h-.6v-.8h.6c0,.1.6.2.6.2v-.7h.3c0,0,0-.3,0-.3h-.2v-.2h-.2v-4.5h-.3v-.4h-.3s-.3,0-.3,0h-.3s0,.1,0,.1h-.2s0,.2,0,.2h-.5c0,0-.6-.2-.6-.2h-.6c0,0,0,.3,0,.3h-.3s-.3,0-.3,0h-.3c0,0-.3-.1-.3-.1v-1.1h.6c0,.1,0-.3,0-.3h.3s.3,0,.3,0h.3s0-.3,0-.3h.3s0-.3,0-.3h-.3s-.3,0-.3,0h-.3s-.3,0-.3,0v-.4h-.6v-.5h.3s.3,0,.3,0h.3c0,0,.3,0,.3,0h.3c0,0,.3.1.3.1v-.4h.6c0,.1.6.2.6.2v-1.8h-.3c0,0-.3-.1-.3-.1h-.3c0,0-.3,0-.3,0v.4h-.6v-1.2h.3s0-.3,0-.3h.3s.3,0,.3,0v-1.4h-.2v-.2h-.2v-.6h.6c0,.1,1.2.3,1.2.3v-.4h.3s.3,0,.3,0v.4h.6c0,0,0-.3,0-.3h.3s.3,0,.3,0h.3s.3.1.3.1h.3s.3,0,.3,0h.3s.3.1.3.1h.3s.3,0,.3,0h.3s0-.3,0-.3h.3s0-.1,0-.1h.2s0-.2,0-.2h.2s.3,0,.3,0h.3v.3h0s0,0,0,0h-.2s0,.3,0,.3h.3v.3h0s0,0,0,0h-.2s0,.3,0,.3h-.3s0,.3,0,.3v.7h.3c0,0,.3,0,.3,0v.2h-.2s0,.2,0,.2h-.2s0,.3,0,.3h0s0,0,0,0h-.3c0,0,0,.3,0,.3h.3v.4h.6c0,.1,0-.3,0-.3h.3c0,0,0-.3,0-.3h.3c0,0,0-.5,0-.5h.2s0-.1,0-.1h.2s0-.2,0-.2h0s0,0,0,0h.2s.3,0,.3,0h.3v.4h.3v.4h.3s.3,0,.3,0h0s0,0,0,0v.3h.3c0,0,.3,0,.3,0h0s0,0,0,0v.3h.3s.3,0,.3,0h0s0,0,0,0v.3h.3c0,0,.2,0,.2,0h0c0,0,0,0,0,0v.3h.3s.2,0,.2,0h0c0,0,0,.1,0,.1v.3h.3s.2,0,.2,0v.2h.2v.2h.3v.6h-.2s0,.2,0,.2v.2h.2v.2h-.3s0,.3,0,.3h-.3s0,.3,0,.3v.4h-.3s0,.3,0,.3v.2h-.2s0,.2,0,.2h-.1s0,.3,0,.3h.2c0,.1,0,.1,0,.1v.3h.3s0-.2,0-.2h0s0,0,0,0h.2s0-.3,0-.3h.3s0-.3,0-.3h.3s0-.3,0-.3v-.2h.2s0-.2,0-.2h.2s0-.3,0-.3h0s0,0,0,0h.3s0-.3,0-.3h.3s.6.1.6.1v.4h.3s.3,0,.3,0v.4h.5v.2h.1v.2h.3v.4h.3v.4h.2v.2h.1v.6h.3c0,0,0,0,0,0v.3h.2v.2h.2v.2h.3v.4l1.2.2h.6v.5h.3s.3,0,.3,0h0s0,0,0,0v.3h.3v.4h.3v.4h.6c0,0,.3.1.3.1v.4h.3s.3,0,.3,0v.4h.3c0,0,.3,0,.3,0v.4h.3s.3,0,.3,0h0v.4h.3c0,0,0-.1,0-.1h.2s0-.2,0-.2h.2s0-.2,0-.2h.2s0-.2,0-.2h.1s0-.3,0-.3h0s.3,0,.3,0v-.4h.3c0,0,0-.3,0-.3h.3s0-.3,0-.3h.3v.4h.3v.2h-.2s0,.2,0,.2h-.2s0,.5,0,.5h-.1s0,.2,0,.2h-.2s0,.3,0,.3v.4h.3v.4h.3c0,0,.3.1.3.1h.3s.3,0,.3,0h.3v.8h-.3s0,.3,0,.3v1.4h0s0,0,0,0h-.3s0,.1,0,.1h-.2s0,.2,0,.2h-.2s-.3,0-.3,0h-.3s-.3-.1-.3-.1h-.3v-.4h-.3s0,.3,0,.3h-.3s0,.3,0,.3v2.1h.3v.4h.3c0,0,.3.1.3.1v.5h-.2s0,.2,0,.2h-.2s0,.3,0,.3v.4h-.3c0,0,0,.3,0,.3v.9h-.2s0,.2,0,.2h.2s.3,0,.3,0h.3s.3,0,.3,0h.3v.4h.3v.4h.2v.2h.2v.2h.3s0-.3,0-.3h.3s.3,0,.3,0v-.4h.6c0,0,.6.2.6.2h.6v.4h0s0,0,0,0h-.2s0,.3,0,.3h-.3s0,.3,0,.3h-.3s0,.3,0,.3v.2h-.2s0,.2,0,.2v.2h.2v.2h.3v.4h.3s.3,0,.3,0v.4h.3s0-.3,0-.3v-.2h.1s0-.2,0-.2h.2s0-.2,0-.2h0s0,0,0,0h.2s0-.3,0-.3h.3c0,0,0-.3,0-.3h.3s0-.3,0-.3v-.2h.2s0-.1,0-.1h.2s0-.3,0-.3h0s.6,0,.6,0v.4h.3s.3.1.3.1h.1v.2h.2v.2h.3s.6.1.6.1l1.5.2h0s0,0,0,0h0c0,.1.2.1.2.1h.2v.2h.3s.3,0,.3,0h.3v1.1h.3s.6.1.6.1h.9v.5h.3s.3,0,.3,0h.3s.3,0,.3,0h.3c0,0,0-.1,0-.1h.2s0-.2,0-.2h.2s0-.3,0-.3v-.6h0s0,0,0,0h.2s0-.3,0-.3h.3s0-.3,0-.3v-.2h.2s0-.2,0-.2h.2s0-.1,0-.1h.1s0,0,0,0v.2h.2s.3,0,.3,0h.6c0,.1.6.2.6.2v.2h.2s.2,0,.2,0h.2s.2,0,.2,0h.2s.1,0,.1,0h.2s.2,0,.2,0h.2s.2,0,.2,0h.2s.1,0,.1,0v.2h.3c0,0,.3.1.3.1h.3s.3,0,.3,0h.3c0,0,.2,0,.2,0h0c0,0,0,.1,0,.1h0c0,0,.2.1.2.1h.2s.2,0,.2,0h.2s.2,0,.2,0h.1s.2,0,.2,0h.2s.2,0,.2,0h.2s.2,0,.2,0v.2h.1s1.3.2,1.3.2h.6c0,0,.2.1.2.1v-.2h.2s0-.2,0-.2h0c0-.1,0-.1,0-.1h0s.1,0,.1,0h.2s.2,0,.2,0v.2h0c0,.1,0,.1,0,.1h0c0,0,.2.1.2.1h.2s.2,0,.2,0h.2s.2,0,.2,0h.2s.2,0,.2,0h.2s.2,0,.2,0h.2s.2,0,.2,0h.2s.2,0,.2,0h.2s.2,0,.2,0h.2s.2,0,.2,0h.2s.2,0,.2,0h.2s.2,0,.2,0h.2s.2,0,.2,0h.2s.2,0,.2,0h.2s.2,0,.2,0h.2s.1,0,.1,0h.2v1.6l-1.2-.2v1.4l-1.3-.2v1.4l-1.2-.2v1.4l-1.2-.2v1.6h-.2s0,.1,0,.1h.2v1.1l1.2.2v-.7h.6c0,.1,0-.6,0-.6h.6c0,.1,1.3.3,1.3.3l1.2.2,1.2.2v1.4l-1.2-.2v1.4l-1.2-.2v1.4l-1.3-.2v5.7l5,.8v1.4l-1.3-.2-1.2-.2-1.2-.2-1.3-.2v2.9l-1.2-.2-1.2-.2v2.8l1.2.2,1.2.2v-1.4l1.3.2,1.2.2,1.2.2v2.9h.6v.8h.6v.8l-1.3-.2-1.2-.2v1.1h-.3s0,.3,0,.3l-2.2-.3-1.2-.2v.7h-.6c0-.1,0,.6,0,.6h-.6c0-.1,0,1.3,0,1.3l1.2.2,1.2.2,2.5.4v-1.3h0s0,0,0,0l1.2.2,1.3.2,1.2.2v1.4l1.2.2,2.5.4v2.9l-2.5-.4-2.5-.4-1.3-.2v1.4l-1.2-.2-1.2-.2-1.3-.2-1.2-.2-1.2-.2v.7h-.6c0,0,0,.6,0,.6h-.6c0,0,0,1.3,0,1.3v1.4l1.2.2,2.5.4v-.7h.6c0,0,0-.6,0-.6h.6c0,0,1.2.3,1.2.3l1.2.2,1.3.2,1.2.2,1.2.2,1.3.2v-1.2h.1s0-.2,0-.2l1.1.2v2.9l-2.5-.4v1.4l-1.2-.2-1.2-.2-1.3-.2-1.2-.2-1.2-.2v1.4l-1.3-.2-1.2-.2-1.2-.2v.7h-.6c0,0,0,.6,0,.6v.7h.6v.8l1.2.2v-1.4l1.2.2v4.3l2.5.4,2.5.4v-1.4l1.2.2,1.2.2,1.3.2,1.2.2v2.9l-1.2-.2-1.3-.2-1.2-.2-1.2-.2v.7h-.6c0,0,0,.6,0,.6l-1.9-.3-1.2-.2-1.3-.2v.7h-.6c0,0,0,.6,0,.6v.7h.6v.8l1.3.2v2.9l-1.3-.2v11.4l1.3.2v1.4h.6v.8h.6v.8l1.2.2v1.4l1.3.2v1.4l3.4.5v.4h.3s.3,0,.3,0v-.4h.9v1.6h.6v.8h.6c0,0,0-.6,0-.6l1.2.2v-1.4l3.1.5v.7h.6v.8l1.3.2v-.7h.6c0,0,0-.6,0-.6l1.9.3,1.3.2v-2.9l1.2.2,1.2.2v14.3h.9v.5h.3v.4h.6c0,0,0-.6,0-.6h.6c0,0,0-1.3,0-1.3v-7.1l1.2.2v8.6h.9v.5h.3v1.1l1.3.2,1.2.2v-4.3l1.2.2v-2.9h-.6v-.8h-.6v-2.2l1.2.2,2.5.4,2.5.4v-.7h.6c0,0,0-.6,0-.6h.6c0,0,0-1.3,0-1.3v-5.7l1.2.2v11.4h.6v.8h.6v.8l1.3.2,1.2.2h.9v.5h.3s.3,0,.3,0v-.4h.9c0,.1,0-1.3,0-1.3h-.9v-.5h-.3v-16.8l1.3.2v-1.4l1.2.2,1.2.2v4.3l1.3.2,1.2.2v2.9h.9v.5h.3v4l1.2.2v4.3l1.3.2v1.4l1.2.2v-1.4l1.2.2v-8.6l2.5.4v-1.4l1.2.2v-4.3l3.8.6v8.6l1.3.2v4.3l1.2.2v1.4l2.5.4v1.4l1.3.2,1.2.2v1.4l2.5.4v1.4l1.2.2h.9v.5h.3v1.1l2.2.3v.4h.3v1.1l1.2.2h.6v.8h.6v.8l1.2.2v1.4l1.2.2,1.3.2v1.4l1.2.2,1.2.2v1.4l1.3.2,1.2.2v1.4l1.2.2h.9v.5h.3v1.1l1.3.2v1.4l2.5.4,1.3.2v1.4l1.2.2,1.2.2v1.4l1.3.2,1.2.2v1.4l1.2.2,1.3.2v1.4l1.2.2h.9v.5h.3v.4h.6c0,0,0-.6,0-.6h.6c0,0,0-1.3,0-1.3l1.2.2v-2.9l1.2.2v-2.9l1.3.2v-2.9l1.2.2v-2.8l1.2.2,1.3.2,1.2.2h.6v.8h.6v.8l2.5.4v.7h-.6c0,0,0,.6,0,.6h-.6c0,0,0,1.3,0,1.3v2.9l-1.3-.2v5.7l-1.2-.2v5h-.6c0,0,0,.6,0,.6h-.6c0,0,0,2.8,0,2.8v1.4l-1.3-.2v5.7l-1.2-.2v5.4h-.3s0,.3,0,.3h-.9c0-.1,0,1.3,0,1.3l1.2.2v1.4l1.2.2v1.4l1.3.2v1.4l1.2.2v1.4l1.1.2v.2h.1v2.7l2.2.3v.4h.3v2.5l1.2.2v1.4h.6v.8h.6v.8l1.2.2v1.4l1.2.2v1.4l1.3.2v1.4l1.2.2v1.4l1.2.2v1.4l1.2.2h0s0,0,0,0v1.4l1.1.2v.2h.2v1.3l1.2.2,1.3.2v-.7h.6c0,0,0-.6,0-.6h.6c0,0,2.5.5,2.5.5v-1.4l1.2.2v-.7h.6c0,0,0-.6,0-.6l3.1.5v-1.4l1.2.2v-.7h.6c0,.1,0-.6,0-.6h.6c0,.1,0-2.8,0-2.8v-42.9l-1.2-.2h0c0,0,0,0,0,0v-88.5l1.3.2v-10l-1.3-.2v-51.4l1.3.2v-4.3h-.6v-13.7h-.6v-.8h.6c0,.1,0-.6,0-.6v-11.4h-.5v-.2h-.2v-15.6h.6c0,.1,0-.6,0-.6v-17.1h-.5v-.2h0v-11.9h.2s0-.1,0-.1h.5c0,0,0-.6,0-.6v-14.3h-.6v-54.4h.6c0,0,0-.6,0-.6v-.7h-.5v-.2h-.2v-1.3h-.6v-.8h.6c0,.1,0-.6,0-.6v-1.4h-.6v-7.9h.6c0,0,0-.6,0-.6v-90.6h-.3v-30h.3c0,0,0-.7,0-.7v-4.3h-.3v-1.5h.3s0-1.4,0-1.4v-2.9h.3c0,0,0-.3,0-.3v-2.5h.3c0,0,0-.7,0-.7v-2.7h.2s0-.2,0-.2h.1s0-.3,0-.3v-1.4h-.3c0,0,0,0,0,0v-1.8h-.3v-.8h-.3v-1.5h-.3v-17.2ZM806.6,708v-.7h-.6v-.8l1.3.2v1.4h-.6ZM823.5,715.9h-.3s0,.3,0,.3h-.9v-1.6l1.3.2v1.1ZM770.9,690.4h-.6c0,0,0,.6,0,.6h-.6v-1.5l1.2.2v.7ZM774.6,664.5v-1.4l1.2.2,1.3.2v1.4l-1.3-.2-1.2-.2ZM772.1,657v1.4l-1.2-.2-1.2-.2v-1.2h.2s0-.2,0-.2l1.1.2,1.2.2ZM721.1,608.2v.4h-.3v-.2h.1s0-.2,0-.2h.2ZM678.2,611.8h-.3c0,0,0,.3,0,.3h-.3c0,0-.2,0-.2,0h0c0,0,0,0,0,0v-.3h-.3s-.3-.1-.3-.1h-.3s-.3,0-.3,0h-.3v-.4l2.5.4v.4ZM678.2,611.4v-.4h.3s.3,0,.3,0h.3s0-.3,0-.3h.3c0,0,.6.1.6.1h.6c0,.1.6.2.6.2v.4h-.3s-.3,0-.3,0h-.3s-.3,0-.3,0h-.3s0,.3,0,.3l-1.6-.2ZM681.3,610.8h.3c0,0,.3.1.3.1v.4h-.6v-.5ZM568,657h.6c0,0,.3.1.3.1v.4h.3v.4h-.9v-.5h-.3v-.4ZM569.2,657.9h.6v.8h-.6v-.8ZM580,659.5v-.2h-.1v-.6h.6v.8h-.5ZM581.7,660.5h-.6v-.8h.5v.2h.2v.6ZM570.5,659.5l1.1.2v.2h.2v.6h.6v.8h-.6c0,0-.5-.2-.5-.2v-.2h-.2v-.6h-.6v-.8ZM569.8,658.7h.6v.8h-.6v-.8Z"/>
    <path class="st1" d="M742.1,947v1.4h.9v.5h.3v1.1l1.2.2h0s0,0,0,0v1.4l1.2.2v1.4l2.5.4h.6v.8h.6v.8l1.2.2v1.4l2.5.4,2.5.4,2.5.4v1.4l1.2.2,1.3.2,1.2.2,1.2.2v1.4l5,.8,3.8.6v1.4l1.3.2,1.2.2,1.2.2v1.4l2.5.4,1.2.2v1.4l1.2.2v1.4l2.5.4,4.7.7v.4h.3v1.1l1.3.2,1.2.2,1.2.2,1.2.2,1.3.2,1.2.2,1.2.2,1.3.2v1.4l2.5.4,2.5.4,1.2.2v1.4l1.2.2,1.3.2,1.2.2,1.2.2,1.3.2v1.4l2.5.4,3.8.6v1.4l1.3.2,1.2.2,1.2.2,1.2.2,1.3.2v1.4l2.5.4,2.5.4h.6v.8h.6v.8l1.3.2,1.2.2,1.2.2v1.4l5,.8,1.3.2v1.4l1.2.2,1.2.2,1.3.2,1.2.2,1.2.2v-1.4l2.5.4v-2.8h0s2.5.4,2.5.4v-1.4l1.2.2v-1.4l1.2.2v-1.4l1.3.2v-1.4h0s1.2.2,1.2.2v-.7h.6c0,0,0-.6,0-.6h.6c0,0,1.3.3,1.3.3v-1.4l1.2.2v-1.4l1.2.2v-1.4l2.5.4v-2.5h.3s0-.3,0-.3l2.2.3v-2.1h.6c0,0,0-.6,0-.6l1.9.3v-2.2h.6c0,.1,0-.6,0-.6l1.9.3v-1.4l1.2.2v-1.4l1.2.2v-1.1h.3s0-.3,0-.3h.9c0,.1,0-.6,0-.6h.6c0,0,0-.6,0-.6h.6c0,0,1.2.3,1.2.3v-1.4l1.3.2v-1.4l2.5.4v-2.1h.6c0,0,0-.6,0-.6l1.9.3v-1.4l1.2.2v-1.4l1.3.2v-1.4l1.2.2v-1.1h.3s0-.3,0-.3h.9c0,.1,0-.6,0-.6h.6c0,0,0-.6,0-.6h.6c0,0,1.2.3,1.2.3v-1.4l1.2.2v-1.4l1.3.2v-1.3h0s0,0,0,0l2.4.4v-2.2h.6c0,.1,0-.6,0-.6l1.9.3v-1.4l1.2.2v-1.4l1.3.2v-1.1h.3s0-.3,0-.3h.9c0,.1,0-.6,0-.6h.6c0,0,0-.6,0-.6h.6c0,0,1.3.3,1.3.3v-1.4l-1.3-.2v-2.9l1.3.2v-1.4l1.2.2v-8.6l-1.2-.2v-1.4h-.6v-.8h-.6v-.8h-.6v-.8h-.6v-.8l-.9-.2v-.3h-.3v-2.5h0s0,0,0,0l1.2.2v-1.4h-.6v-.8h-.6v-.8l-1.3-.2-1.2-.2v1.4l-2.5-.4v2.9l-1.2-.2v1.4l-1.2-.2v1.4l-2.5-.4v2.8h0s-2.5-.4-2.5-.4v1.4l-1.2-.2v1.1h-.3s0,.3,0,.3h-.9c0-.1-2.5-.5-2.5-.5v1.4l-1.2-.2-1.3-.2-1.2-.2v1.4l-1.2-.2-1.3-.2v1.4l-1.2-.2v-1.4l-1.2-.2v-1.4l-1.3-.2v-4.3h.6v.8h.6c0,0,0-.5,0-.5h0s0,0,0,0l1.2.2v-4.3l1.2.2v-1.2h.2s0-.2,0-.2l1.1.2v-.7h.6c0,0,0-.6,0-.6h.6c0,0,0-.6,0-.6h.6c0,0,0-.6,0-.6h.6c0,0,0-1.3,0-1.3l-1.2-.2-1.2-.2v1.4l-1.3-.2v1.4l-1.2-.2v1.1h-.3s0,.3,0,.3l-2.2-.3v1.4l-1.2-.2v1.4l-1.2-.2v1.4l-1.3-.2v1.2h-.2s0,.2,0,.2l-1.1-.2v1.1h-.3s0,.3,0,.3h-.9c0-.1,0,.9,0,.9h-.3s0,.3,0,.3h-.9c0-.1,0,.6,0,.6h-.6c0-.1,0,.6,0,.6h-.6c0,0,0,.6,0,.6h-.6c0,0,0,.6,0,.6h-.6c0,0-1.3-.3-1.3-.3v1.4l-1.2-.2v1.4l-2.5-.4v1.4l-1.3-.2-1.2-.2-1.2-.2-1.3-.2-1.2-.2-1.2-.2-1.3-.2-1.2-.2v-1.4l-2.5-.4v-2.9l-2.5-.4v-4.3l1.2.2v-2.9l1.2.2v-1.4l2.5.4,1.2.2v-1.4h-.9v-.5h-.3v-6.8l-1.2-.2v-7.2l-1.3-.2v-1.4l-1.9-.3v-.7h-.6v-.8l-1.3-.2-1.2-.2-1.2-.2v1.4l-1.3-.2-1.2-.2v1.4l-1.2-.2-1.2-.2-1.3-.2-1.2-.2v.7h-.6c0,0,0,.6,0,.6l-3.1-.5v.7h-.6c0,0,0,.6,0,.6h-.6c0,0-1.3-.3-1.3-.3l-1.2-.2v2.9l-1.2-.2v2.9h0l-1.2-.2v1.4l-1.2-.2v1.4l-1.2-.2-1.2-.2-1.3-.2-1.2-.2v-1.4h-.6v-.8h-.6v-.8l-1.3-.2v2.9l-1.2-.2-1.2-.2v-1.4l-2.5-.4v2.9l-5-.8v2.9l-2.5-.4v.7h-.6c0,0,0,.6,0,.6h-.6c0,0-1.2-.3-1.2-.3v-1.4l-2.5-.4v-1.4l-1.2-.2v1.4l-1.3-.2-2.5-.4v1.4l-1.2-.2-1.3-.2-1.2-.2-1.2-.2-1.3-.2-1.2-.2v-1.4l-2.4-.4h0c0,0,0,0,0,0v-2.8l-2.5-.4v-1.4l-1.2-.2-1.3-.2v-1.4l-2.5-.4v-1.4l-1.3-.2-1.2-.2h0c0,0,0-.1,0-.1v-1.3l-2.2-.3v-.3h-.3v-2.6l-2.5-.4-2.5-.4v.7h-.6c0,0,0,.6,0,.6h-.6c0,0,0,1.3,0,1.3v1.4l1.2.2v1.4l2.5.4h.6v.8h.6v5.1l-1.2-.2v5.7l-1.2-.2v2.1h-.6c0,0,0,.6,0,.6h-.6c0-.1,0,1.3,0,1.3l-1.2-.2-1.2-.2v1.1h-.3s0,.3,0,.3h-.3s0,.7,0,.7h.6v.8l1.2.2,1.2.2v1.4l1.3.2v1.4l1.2.2v1.4h.6v.8h.6v2.2l1.2.2v5.7l-1.2-.2v2.5h-.3s0,.3,0,.3h-.9c0-.1,0,1.3,0,1.3l-1.2-.2v1.4l-1.3-.2v1.4l-1.2-.2v1.4l-1.2-.2v1.4l-1.3-.2-1.2-.2v1.4l-5-.8-5-.8-5-.8v5.7l-1.3-.2Z"/>
    <path class="st1" d="M668.1,872.5v1.8l1.2.2v1.4l1.3.2v1.4l1.2.2h.6v.8h.6v.8h.6v.8h.6v.8l.9.2v.3h.3v1.1l1.2.2v1.4l1.2.2v1.4l1.3.2v1.4l1.2.2v1.4l1.2.2v1.4l1.2.2v1.4l1.3.2v1.4l1.2.2v1.4l1.9.3v.7h.6v2.2l2.2.3v.4h.3v2.6l2.5.4h0s0,0,0,0v2.9l2.5.4v2.9l2.5.4v2.9l2.5.4v2.9l2.5.4h.6v.8h.6v.8l1.1.2v.2h.1v1.3l1.2.2h0c0,0,0,0,0,0v1.3l1.2.2h0s0,0,0,0v.7h.6c0,0,0-.6,0-.6h.6c0,0,0-.6,0-.6h.6c0,0,0-.6,0-.6h.6v1.5l1.3.2v1.4l-1.3-.2v.7h-.6c0,0,0,.6,0,.6h.6v1.5l1.3.2v1.4l1.2.2v1.4l1.2.2v1.4l1.2.2v1.4l1.2.2h0c0,0,0,.1,0,.1v1.3l1.2.2v1.4l1.2.2v1.4l1.3.2v1.4l1.2.2h0c0,0,0,0,0,0v1.3h.9v.5h.3v4l3.8.6v1.4l1.2.2,1.3.2,1.2.2v1.4l2.5.4v-4.3l-1.2-.2-1.2-.2-1.2-.2v-7.2h.6v.8h.6v.8l1.2.2,1.2.2v1.4l2.5.4v-.7h.3s0-.3,0-.3h-.3v-1.8l-2.5-.4v-2.9l2.5.4v-4.3l-1.2-.2v-1.4l1.2.2v-1.4l1.2.2,1.3.2v-10l-1.3-.2v-1.4h-.6v-.8h-.6v-.8l-2.5-.4v1.4l-1.2-.2-1.2-.2-1.2-.2-1.3-.2-1.2-.2v1.4l-3.8-.6v2.1h-.6c0,0,0,.6,0,.6l-1.9-.3-2.5-.4-1.2-.2v1.4l-1.3-.2-1.2-.2h-.6v-.8h-.6v-.8l2.5.4v-2.9l2.5.4v-2.1h.6c0,0,0-.6,0-.6l1.9.3,2.5.4v-.7h.6c0,0,0-.6,0-.6h.6c0,0,0-1.2,0-1.2h0s0,0,0,0l3.1.5v.7h.6c0,.1,0-.3,0-.3h.3s0-.3,0-.3h.9c0,.1,0-1.3,0-1.3l1.2.2,1.2.2,1.2.2,1.3.2v-.7h.6c0,.1,0-.6,0-.6h.6c0,.1,0-2.8,0-2.8l1.9.3v.7h.6v.8l1.2.2,1.2.2,1.2.2h.6v.8h.6v.8l2.5.4v-5.7l-1.2-.2v-1.4h-.9v-.5h-.3v-4l-1.3-.2v-2.9l1.3.2,2.5.4v-10l1.3.2v-.7h.6c0,0,0-.6,0-.6h.6c0,0,2.5.5,2.5.5v-1.4l1.3.2,1.2.2,1.2.2v-1.4l-1.2-.2-1.2-.2-1.3-.2-2.5-.4-2.5-.4-2.5-.4v-2.9l-2.5-.4v-1.4l1.2.2,1.3.2,1.2.2,1.2.2,1.3.2,1.2.2,1.2.2v-1.4l1.2.2,1.3.2v-2.9l-1.3-.2-2.5-.4v1.4l-1.2-.2-1.3-.2-1.2-.2-1.2-.2-1.3-.2-1.2-.2v-10l-2.5-.4v-2.9l-2.5-.4v-2.5h.3s0-.3,0-.3l2.2.3v-.7h.6c0,0,0-.6,0-.6h.6c0,0,0-1.3,0-1.3v-4.3l-1.2-.2v-2.9l1.2.2v-2.9l-1.2-.2v-1.4l-1.2-.2h0s0,0,0,0v-1.4l-1.2-.2-1.2-.2h-.9v-.5h-.3v-2.5l1.3.2,1.2.2v1.4l2.5.4,1.2.2v1.4l1.2.2v2.9l1.2.2h.6v.8h.6v1.9h-.3s0,.3,0,.3h-.9c0-.1,0,1.3,0,1.3h.6v.8h.6v9.4l1.2.2v1.4l1.2.2,1.3.2v1.4l1.2.2v1.4l2.5.4,2.5.4v-.7h.6c0,0,0-.6,0-.6h.6c0,0,1.3.3,1.3.3l1.2.2v-1.4l1.2.2v-.7h.6c0,0,0-.6,0-.6h.6c0,0,1.3.3,1.3.3v-1.1h.3s0-.3,0-.3l2.2.3v-1.4l1.3.2v-.7h.6c0,0,0-.6,0-.6h.6c0,0,1.2.3,1.2.3v-.7h.6c0,0,0-.6,0-.6h.6c0,0,1.3.3,1.3.3l1.2.2v-1.1h.3s0-.3,0-.3l2.2.3,2.5.4,1.3.2v1.4l1.2.2,1.2.2v1.4l1.2.2,1.9.3v.7h.6v.8l1.2.2h.9v.5h.3v1.1l1.2.2v1.4l1.2.2v1.4l4.4.7v.7h.6v.8l1.3.2,1.2.2v-4.3l1.2.2v-1.4l1.3.2v-2.9l1.2.2v-1.4l1.2.2v-2.9l1.3.2v-7.1l-1.1-.2v-.2h-.2v-5.6l-1.2-.2v-1.4l1.2.2v-1.4l1.3.2,1.2.2v-.7h.6c0,0,0-.6,0-.6l4.4.7v-1.4l1.2.2v-4.3l1.3.2v-.7h.6c0,.1,0-.6,0-.6h.6c0,.1,1.2.3,1.2.3v-.7h.6c0,0,0-.6,0-.6h.6c0,0,0-1.3,0-1.3v-7.1l-.9-.2v-.3h-.3v-2.6l-2.2-.3v-.4h-.3v-2.5l-2.5-.4-1.2-.2v1.4l-1.3-.2-1.2-.2-1.2-.2v1.4l-1.2-.2v-1.4h-.6v-.8h-.6v-2.2l-1.2-.2v-1.4l-1.1-.2v-.2h-.1v-3.4h.6c0,0,0-.6,0-.6h.6c0,.1,1.2.3,1.2.3v-1.4l1.3.2v-.7h.6c0,.1,0-.6,0-.6h.6c0,0,1.2.3,1.2.3v-1.4l1.2.2v-1.1h.3s0-.3,0-.3h.9c0,.1,0-.6,0-.6h.3s0-.3,0-.3h-.3v-.4l-1.3-.2v1.1h-.3s0,.3,0,.3h-.9c0-.1,0,.6,0,.6h-.6c0,0,0,.3,0,.3h-.3s0,.3,0,.3h-.3s-1.2-.2-1.2-.2v1.3h0s0,0,0,0l-1.2-.2v.7h-.6c0,0,0,.6,0,.6h-.6c0,0-1.2-.3-1.2-.3v1.4h-.6v-.8h-.6v-2.2l-1.2-.2v-2.9l-1.2-.2v-1.4l-1.3-.2-1.2-.2v-1.4l1.2.2v-1.4l1.3.2v-1.4l-1.3-.2v-1.4l-1.9-.3v-.7h-.6v-.8l-1.2-.2-1.3-.2v-1.4h.6c0,0,0-.6,0-.6h-.6v-2.2l-1.9-.3v-.7h-.6v-.8h-.6v-.8h-.6v-.8h-.6v-.4h-.3c0,0,0,.3,0,.3h-.3c0,0-1.2-.2-1.2-.2v1.4l1.2.2v2.9l-1.2-.2v1.4l-1.3-.2v1.1h-.3s0,.3,0,.3h-.9c0-.1,0,.6,0,.6h-.6c0,0,0,.6,0,.6h-.6v-5.8l-1.2-.2v-1.4l-1.3-.2-1.2-.2-1.2-.2v.7h-.6c0,0,0,.6,0,.6l-1.9-.3v-2.9l2.5.4,1.2.2v-1.4h.6c0,0,0-.6,0-.6h-.6v-.8l-1.2-.2v-1.4h-.9v-.5h-.3v-1.1l-1.2-.2v-.7h.6c0,0,0-.6,0-.6h.6c0,0,0-.6,0-.6h.6c0,0,0-.6,0-.6h.6c0,.1,0-.6,0-.6h.6c0,.1,0-.6,0-.6h.6c0,.1,0-.6,0-.6h.6c0,.1,0-.6,0-.6h-.6c0,0-1.2-.3-1.2-.3v1.1h-.3s0,.3,0,.3h-.9c0-.1,0,.9,0,.9h-.3s0,.3,0,.3h-.9c0-.1-2.5-.5-2.5-.5v-2.7h.2s0-.2,0-.2l1.1.2v-2.1h.6c0,0,0-.6,0-.6h.6c0,0,0-1.3,0-1.3l1.2.2v-1.4l-1.2-.2v.7h-.6c0-.1,0,.6,0,.6h-.6c0-.1,0,1.3,0,1.3l-1.3-.2v-2.9l1.3.2v-2.8l-1.3-.2v1.4l-1.2-.2v2.5h-.3s0,.3,0,.3h-.9c0-.1,0,1.3,0,1.3l-1.2-.2v2.7h-.2s0,.1,0,.1l-1.1-.2v-1.4l-1.2-.2v-2.9l-1.2-.2v-2.5h.3s0-.3,0-.3h.9c0,.1,0-1.3,0-1.3l1.2.2v-2.9l-1.2-.2v1.4l-1.2-.2v2.8h0s0,0,0,0l-1.2-.2v2.1h-.6c0,0,0,.6,0,.6h-.6c0,0,0,1.3,0,1.3l-1.2-.2v-.7h.3s0-.3,0-.3h-.3v-.4h-.9v-.5h-.3v-1.1l-2.5-.4v-.7h-.6c0,0-.6-.2-.6-.2v-.7l-1.3-.2v-.7h.6c0,0,0-.6,0-.6h.6c0,0,0-1.3,0-1.3l1.2.2v-2.9l-1.2-.2-1.3-.2v1.4l-1.2-.2v2.9l-1.2-.2v1.4h-.6v-.8h-.6v-.8l-1.3-.2v-.7h.6c0,0,0-.6,0-.6h.6c0,0,0-1.3,0-1.3l1.2.2v-2.1h.6c0,0,0-.6,0-.6h-.6c0,0-1.2-.3-1.2-.3v1.4h0s0,0,0,0l-1.2-.2v2.2h-.6c0-.1,0,.6,0,.6h-.6c0-.1,0,1.3,0,1.3l-1.2-.2v2.1h-.6c0,0,0,.6,0,.6h-.6c0,0,0,1.3,0,1.3l-1.2-.2v2.1h-.6c0,0,0,.6,0,.6h-.6c0,0,0,1.3,0,1.3l-1.2-.2v-2.9l1.2.2v-2.1h.6c0,0,0-.6,0-.6h.6c0,0,0-1.3,0-1.3l1.2.2v-2.5h.3s0-.3,0-.3h.9c0,.1,0-1.3,0-1.3v-1.1h.3c0,0,0-.3,0-.3h.9c0,.1,0-1.3,0-1.3l1.2.2v-4.2h0s1.2.1,1.2.1v-2.9l-1.3-.2v1.4l-1.2-.2v2.1h-.6c0,0,0,.6,0,.6h-.6c0,0,0,1.3,0,1.3l-1.3-.2v2.5h-.3s0,.3,0,.3l-.9-.2v1.4l-1.2-.2h0v-1.4l-1.2-.2v2.1h-.6c0,0,0,.6,0,.6h-.6c0,0-1.2-.3-1.2-.3v-1.4l1.2.2v-2.5h.3c0,0,0-.3,0-.3l.9.2v-1.4l1.2.2v-2.9l-1.2-.2v.7h-.6c0,0,0,.6,0,.6h-.6c0,0,0,1.3,0,1.3l-1.2-.2v2.5h-.3s0,.3,0,.3h-.9c0-.1,0,1.3,0,1.3l-1.3-.2-1.2-.2v-1.2h.2s0-.2,0-.2l1.1.2v-1.4l1.3.2v-2.9l1.2.2v-2.1h.6c0,0,0-.6,0-.6v-.7h-.6v-.8l-1.2-.2v.7h-.6c0,0,0,.6,0,.6h-.6c0,0,0,2.8,0,2.8v1.1h-.3s0,.3,0,.3h-.9c0-.1,0,1.3,0,1.3l-1.2-.2v2.7h-.2s0,.2,0,.2l-2.3-.4v2.9l-1.2-.2v-1.4l-1.2-.2v-8.6l-1.3-.2v1.1h-.3s0,.3,0,.3h-.9c0-.1,0,2,0,2h-.6c0,0,0,.6,0,.6h-.6c0,0,0,1.3,0,1.3l-1.2-.2v2.9l1.2.2v3.6h-.6c0-.1,0,.6,0,.6h-.6c0-.1,0,2.8,0,2.8v10l-1.3-.2-1.2-.2v-1.4l-1.2-.2v-10l1.2.2v-8.6l-1.2-.2h-.6v-.8h-.6c0,0-.6-.2-.6-.2v.7h-.6c0,0-1.2-.3-1.2-.3l-1.2-.2v1.1h-.3c0,0,0,.3,0,.3l-3.4-.5v.7h-.6c0,0,0,.6,0,.6h-.6c0,0-1.3-.3-1.3-.3l-1.2-.2-1.2-.2-1.3-.2-1.2-.2v.7h-.6c0,0,0,.6,0,.6l-1.9-.3-1.3-.2v1.4l-1.2-.2v1.4l-1.2-.2v2.9l1.2.2v4.3l1.2.2v1.4l1.3.2v2.9l-1.3-.2v4.3l1.3.2,1.2.2v1.4l1.2.2h0s0,0,0,0v3.5h-.6c0,0,0,.6,0,.6h-.6c0,0,0,1.3,0,1.3l-1.2-.2-1.3-.2v-2.9l-1.2-.2-2.5-.4-1.3-.2v1.4l-1.2-.2-1.2-.2v-1.4l-1.3-.2v2.1h-.6c0,0,0,.6,0,.6h-.6c0,0,0,1.3,0,1.3v.7h-.6c0,0,0,.6,0,.6h-.6c0-.1-2.5-.5-2.5-.5v-1.4l-1.2-.2-1.2-.2-1.2-.2v1.1h-.3s0,.3,0,.3h-.9v-1.6l-1.2-.2-1.2-.2v-1.1h.3s0-.3,0-.3h.9c0,.1,0-1.3,0-1.3l1.2.2v-1.4l1.3.2v-2.2h.6c0,.1,0-.6,0-.6h-.5v-.2h-.1v-1.3l-1.3-.2v.7h-.6c0,0,0,.6,0,.6h-.6v-5.8h0s1.2.1,1.2.1v-2.9l-2.5-.4v1.1h-.3s0,.3,0,.3h-.9c0-.1,0,.9,0,.9h-.3s0,.3,0,.3h-.9c0-.1,0,1.3,0,1.3h0s-1.2-.2-1.2-.2v2.1h-.6c0,0,0,.6,0,.6h-.6c0,0,0,1.3,0,1.3l-1.3-.2v1.4l-1.2-.2v3.6h-.6c0,0,0,.6,0,.6h-.6c0,0,0,1.3,0,1.3l-1.2-.2v7.2l-2.5-.4-2.5-.4-2.5-.4-2.5-.4v1.4l-1.3-.2-1.2-.2-1.2-.2v-1.4l-1.3-.2-2.5-.4-1.2-.2v1.4l-1.3-.2v1.4l-1.2-.2v1.4l-1.1-.2v-.2h-.2v-4.1l-1.2-.2v-2.9h-.6v-.8h-.6v-6.5l-1.2-.2-1.2-.2v1.2h-.2s0,.1,0,.1l-4.2-.6v-.7h-.6c0,0,0,.6,0,.6l-1.2-.2v.7h-.6c0,0,0,.6,0,.6h-.6c0-.1,0,1.1,0,1.1h-.1s0,.2,0,.2l-1.1-.2v10l-1.2-.2v4.3l-1.2-.2v5h-.6c0,0,0,.6,0,.6h-.6c0,0,0,1.3,0,1.3l-1.2-.2-1.2-.2v1.1h-.3s0,.3,0,.3l-.9-.2v2.5h-.3s0,.3,0,.3v.3h0s0,0,0,0h-.3s0,.3,0,.3v.3h0s0,0,0,0h-.2s0,.3,0,.3h-.3s0,.6,0,.6h0s0,0,0,0h-.2s0,.3,0,.3v.3h0s-.3,0-.3,0v.3h0s-.3,0-.3,0v.4h-.3c0,0,0,.3,0,.3h-.3s0,.3,0,.3h-.3s0,.3,0,.3h-.3s0,.3,0,.3h-.3s0,.3,0,.3h-.3s0,.1,0,.1h-.2s0,.2,0,.2h-.2s0,.2,0,.2h0s0,0,0,0h-.2s0,.3,0,.3v1.4h-.3s0,.3,0,.3h-.3s0,.3,0,.3h-.3s0,.3,0,.3h-.3s0,.3,0,.3h-.3s0,.3,0,.3h-.3s0,.3,0,.3h-.3s0,.3,0,.3h-.3s0,.3,0,.3h0s-.3,0-.3,0v.3h0s0,0,0,0h-.2s0,.2,0,.2h0s0,0,0,0h-.2s0,.1,0,.1h-.1s0,.2,0,.2h-.2s0,.1,0,.1h-.2s0,.2,0,.2h-.1s-.3,0-.3,0v.4h-.3s0,.3,0,.3h-.3s0,.3,0,.3h-.3s0,.3,0,.3h-.3s0,.3,0,.3v.2h-.1s0,.1,0,.1h-.2s0,.3,0,.3h0s0,0,0,0h-.3s0,.3,0,.3h-.3s0,.3,0,.3h-.3s0,.3,0,.3v.2h-.2s0,.2,0,.2h-.1s0,.3,0,.3h-.3s0,.3,0,.3h-.3s0,.3,0,.3v.2h-.2s0,.2,0,.2h-.1s0,.3,0,.3h-.3c0,0,0,.3,0,.3h.3v.4h.3s.5.1.5.1v.2h.2v.2h.3s.3,0,.3,0v.4h.6c0,0,.5.2.5.2v.2h.2v.2h.3s.3.1.3.1v.3h.6c0,0,.5.2.5.2h0c0,0,0,.1,0,.1v.3h.3s.3.1.3.1v.3h.6c0,0,.6.2.6.2v.4h.3s.3,0,.3,0h.3v.4h.3s.8.2.8.2v.2h.2v.2h.3s.3,0,.3,0h.2v.2h.2v.2h.6v.4h.3c0,0,.3.1.3.1v.4h.6c0,0,.5.2.5.2v.2h.2v.2h.3c0,0,.3.1.3.1v.3h.6c0,.1.3.1.3.1h0s0,0,0,0v.3h.3s.3.1.3.1h.2v.2h.1v.2h.6v.5h.3s.3,0,.3,0h.3v.4h.3s.5.1.5.1v.2h.2v.2h.3s.3,0,.3,0v.4h.9v.5h.3s.3,0,.3,0h.2v.2h.1v.2h.6v.5h.3s.3,0,.3,0h.3v.4h.3s.2,0,.2,0v.2h.2v.2h.2c0,.1,0,.1,0,.1v.3h.3v.4h.3v.4h.3v.4h.3s.2,0,.2,0v.2h.2v.2h.2c0,.1,0,.1,0,.1v.6h.6c0,.1,0,.1,0,.1v.3h.3v.4h.3v.4h.3s.2,0,.2,0v.2h.2v.2h.1v.2h.2v.2h.3c0,0,0,.1,0,.1v.3h.3v.4h.3v.4h.5v.2h.2v.6h.6c0,.1,0,.1,0,.1v.7h.6v.2h0v.6h.5v.2h.1v.5h.3v.4h.3v.4h.3v.4h.3v.4h.3v.4h.3v.4h.5v.2h.2v.6h.6c0,.1,0,.1,0,.1v.7h.3v.4h.3v.4h.3v.4h.3s.2,0,.2,0v.2h.1v.2h.2v.2h.2v.2h.2c0,.1,0,.1,0,.1v.3h.3c0,0,0,0,0,0v.3h.3v.4h.3v.4h.3v.4h.2c0,.1,0,.1,0,.1v.6h.3v.4h.3v.4h.2v.2h.1v.6h.3v.4h.3v.4h.3v.4h.3s.2,0,.2,0v.2h.2v.2h.2v.2h.2v.2h.2c0,.1,0,.1,0,.1v.3h.3v.4h.3v.4h.3v.4h.3c0,0,.2,0,.2,0v.2h.2v.2h.2v.2h.1v.2h.3c0,0,0,0,0,0v.3h.3v.4h.3v.4h.3s.1,0,.1,0v.2h.2v.2h.2c0,.1,0,.1,0,.1v.3h.3v.4h.3s.2,0,.2,0v.2h.1v.2h.2c0,.1,0,.1,0,.1v.3h.3v.4h.3s.2,0,.2,0v.2h.2v.6h.3v.4h.3v.4h.3v.4h.3c0,0,0,0,0,0v.3h.1v.2h.2v.2h.2v.2h.1v.6h.3v.4h.3v.4h.3v.4h.3c0,0,0,0,0,0v.3h.2c0,.1,0,.1,0,.1v.3h.2v.2h.1v.2h.2v.2h.2v.2h.2c0,.1,0,.1,0,.1v.3h.2c0,.1,0,.1,0,.1v.3h.2c0,.1,0,.1,0,.1v.3h.2c0,.1,0,.1,0,.1v.3h.2c0,.1,0,.1,0,.1v.3h.3c0,0,0,0,0,0v.3h.3c0,0,0,0,0,0v.3h.3c0,0,0,0,0,0v.3h.3v.4h.3v.4h.3v.4h.3v.4h.3v.4h.3v.4h.3v.4h.3v.4h.3v.4h.3v.4h.3v.4h.3v.4h.3v.4h.3v.4h.3v.4h.3v.4h.3v.4h.3v.4h.3v.4h.3v.4h.3v.4h.3ZM790.9,802.8l1.2.2v.7h-.6c0,0,0,.6,0,.6h-.6v-1.5ZM787.2,795.1l1.2.2v1.1h-.3s0,.3,0,.3h-.9v-1.6ZM784.7,797.5v-.7h.6c0,0,0-.6,0-.6h.6c0,0,1.2.3,1.2.3v.7h-.6c0,0,0,.6,0,.6h-.6c0,0-1.3-.3-1.3-.3ZM725.8,758.6l-1.3-.2v-.7h.6c0,0,0-.6,0-.6h.6v1.5ZM768.4,772.9h-.6c0,0,0,.6,0,.6h-.6c0,0,0,1.3,0,1.3l-1.2-.2v-2.8h0s0,0,0,0l1.2.2v-1.4l1.2.2v2.1Z"/>
  </g>
</svg>